<?xml version="1.0" encoding="UTF-8" standalone="no"?>
<!DOCTYPE svg PUBLIC "-//W3C//DTD SVG 20010904//EN"
              "http://www.w3.org/TR/2001/REC-SVG-20010904/DTD/svg10.dtd">

<svg xmlns="http://www.w3.org/2000/svg"
     width="6.28in" height="4.97333in"
     viewBox="0 0 1884 1492">
  <path id="Selection"
        fill="#6c757d" stroke="#6c757d" stroke-width="1"
        d="M 42.00,0.06
           C 42.00,0.06 95.00,0.06 95.00,0.06
             95.00,0.06 197.00,0.06 197.00,0.06
             197.00,0.06 508.00,0.06 508.00,0.06
             508.00,0.06 1456.00,0.06 1456.00,0.06
             1456.00,0.06 1785.00,0.06 1785.00,0.06
             1785.00,0.06 1808.00,0.06 1808.00,0.06
             1835.07,0.00 1869.87,-4.54 1880.79,28.00
             1882.77,33.89 1882.99,35.87 1883.00,42.00
             1883.00,42.00 1883.00,1155.00 1883.00,1155.00
             1883.00,1155.00 1883.00,1412.00 1883.00,1412.00
             1883.00,1412.00 1883.00,1438.00 1883.00,1438.00
             1883.00,1438.00 1883.00,1451.00 1883.00,1451.00
             1882.93,1464.98 1875.89,1477.60 1864.00,1485.05
             1860.73,1487.10 1856.73,1488.83 1853.00,1489.84
             1848.10,1491.17 1839.15,1491.99 1834.00,1492.00
             1834.00,1492.00 428.00,1492.00 428.00,1492.00
             428.00,1492.00 99.00,1492.00 99.00,1492.00
             99.00,1492.00 68.00,1492.00 68.00,1492.00
             46.28,1492.00 23.90,1494.50 9.04,1475.00
             6.51,1471.67 4.50,1467.94 3.09,1464.00
             1.15,1458.60 1.01,1455.60 1.00,1450.00
             1.00,1450.00 1.00,341.00 1.00,341.00
             1.00,341.00 1.00,85.00 1.00,85.00
             1.00,85.00 1.00,56.00 1.00,56.00
             1.00,56.00 1.00,40.00 1.00,40.00
             1.19,24.95 10.56,11.26 24.00,4.79
             32.23,0.82 33.73,1.60 42.00,0.06 Z
           M 1801.00,83.00
           C 1801.00,83.00 83.00,83.00 83.00,83.00
             83.00,83.00 83.00,313.00 83.00,313.00
             83.00,313.00 1801.00,313.00 1801.00,313.00
             1801.00,313.00 1801.00,83.00 1801.00,83.00 Z
           M 1120.00,157.52
           C 1120.00,157.52 1146.00,157.00 1146.00,157.00
             1146.00,157.00 1192.00,157.00 1192.00,157.00
             1207.30,157.00 1217.92,155.23 1231.00,165.24
             1262.23,189.14 1245.68,238.94 1206.00,239.00
             1206.00,239.00 1143.00,239.00 1143.00,239.00
             1130.00,239.00 1118.73,240.55 1107.00,233.52
             1086.03,220.96 1080.43,192.46 1095.29,173.04
             1101.51,164.91 1110.27,160.11 1120.00,157.52 Z
           M 1355.00,157.51
           C 1355.00,157.51 1390.00,157.00 1390.00,157.00
             1390.00,157.00 1427.00,157.00 1427.00,157.00
             1444.00,157.00 1453.61,155.21 1467.91,166.90
             1473.92,171.81 1477.55,177.74 1480.00,185.00
             1489.01,211.71 1469.18,238.96 1441.00,239.00
             1441.00,239.00 1379.00,239.00 1379.00,239.00
             1365.57,239.00 1354.24,240.60 1342.00,233.64
             1321.85,222.18 1315.70,194.09 1328.60,175.00
             1335.17,165.27 1343.89,160.33 1355.00,157.51 Z
           M 1590.00,157.51
           C 1590.00,157.51 1616.00,157.00 1616.00,157.00
             1616.00,157.00 1661.00,157.00 1661.00,157.00
             1676.68,157.00 1687.54,155.14 1701.00,165.53
             1720.59,180.65 1722.29,210.28 1704.56,227.54
             1696.53,235.35 1686.02,238.98 1675.00,239.00
             1675.00,239.00 1613.00,239.00 1613.00,239.00
             1599.18,239.00 1588.45,240.63 1576.00,233.07
             1554.42,219.97 1550.33,190.06 1566.47,171.04
             1572.93,163.42 1580.56,159.91 1590.00,157.51 Z
           M 1801.00,396.00
           C 1801.00,396.00 83.00,396.00 83.00,396.00
             83.00,396.00 83.00,1409.00 83.00,1409.00
             83.00,1409.00 1801.00,1409.00 1801.00,1409.00
             1801.00,1409.00 1801.00,396.00 1801.00,396.00 Z
           M 970.00,829.00
           C 969.51,839.41 961.89,859.72 958.05,870.00
             956.76,873.45 951.57,884.08 952.41,887.00
             953.33,890.21 964.98,900.98 968.00,904.00
             983.26,919.26 1001.32,934.06 991.55,958.00
             989.98,961.83 988.14,964.79 985.53,968.00
             985.53,968.00 968.00,986.00 968.00,986.00
             954.21,999.79 945.04,1013.24 924.00,1013.00
             920.76,1012.96 919.16,1012.90 916.00,1011.96
             912.13,1010.81 909.29,1009.27 906.00,1006.96
             900.16,1002.85 885.91,987.91 880.00,982.00
             877.57,979.57 870.90,972.23 868.00,971.41
             865.17,970.61 855.24,975.52 852.00,976.80
             852.00,976.80 823.00,986.66 823.00,986.66
             820.27,987.51 812.19,989.15 810.60,990.73
             808.65,992.67 809.01,996.44 808.85,999.00
             808.85,999.00 808.85,1024.00 808.85,1024.00
             808.85,1024.00 808.85,1043.00 808.85,1043.00
             806.31,1055.36 796.40,1066.57 784.00,1069.47
             776.12,1071.32 764.24,1071.09 756.00,1071.00
             734.82,1070.75 717.27,1060.06 717.00,1037.00
             717.00,1037.00 717.00,998.00 717.00,998.00
             716.98,995.59 717.20,992.45 715.40,990.58
             713.78,988.90 708.43,987.98 706.00,987.29
             706.00,987.29 683.00,980.00 683.00,980.00
             683.00,980.00 666.00,973.30 666.00,973.30
             663.18,972.04 660.05,970.32 657.00,971.81
             654.63,972.96 647.32,980.68 645.00,983.00
             631.97,996.03 619.22,1013.45 599.00,1012.99
             583.82,1012.64 579.07,1005.56 569.00,996.09
             558.48,986.18 538.13,968.98 533.55,956.00
             531.92,951.39 531.95,947.78 532.00,943.00
             532.21,925.28 548.43,913.57 560.00,902.00
             563.85,898.15 574.77,889.62 573.53,884.00
             573.53,884.00 561.72,853.00 561.72,853.00
             561.72,853.00 554.86,830.31 554.86,830.31
             552.83,827.52 549.07,828.01 546.00,828.00
             546.00,828.00 509.00,828.00 509.00,828.00
             503.91,827.99 501.94,828.06 497.00,826.30
             473.34,817.88 473.76,795.79 474.00,775.00
             474.12,764.95 475.95,755.93 482.47,748.00
             493.61,734.43 505.39,736.00 521.00,736.00
             521.00,736.00 548.00,736.00 548.00,736.00
             550.64,735.95 553.29,736.06 555.02,733.69
             555.02,733.69 559.42,719.00 559.42,719.00
             559.42,719.00 568.68,692.00 568.68,692.00
             569.75,689.16 573.99,680.35 573.77,678.00
             573.52,675.25 570.82,672.87 568.99,671.00
             568.99,671.00 557.00,659.00 557.00,659.00
             550.49,652.49 539.85,642.78 535.53,635.00
             528.30,622.01 532.11,605.66 541.59,595.09
             541.59,595.09 556.96,580.01 556.96,580.01
             556.96,580.01 570.99,565.99 570.99,565.99
             581.34,555.74 586.49,550.66 602.00,551.01
             607.27,551.14 612.47,552.36 617.00,555.12
             625.21,560.12 640.46,576.46 648.00,584.00
             651.25,587.25 655.86,593.74 661.00,592.51
             661.00,592.51 690.00,581.42 690.00,581.42
             690.00,581.42 705.00,576.88 705.00,576.88
             707.34,576.27 712.94,575.13 714.69,573.86
             717.48,571.83 716.99,568.07 717.00,565.00
             717.00,565.00 717.00,528.00 717.00,528.00
             717.01,522.91 716.94,520.94 718.70,516.00
             726.95,492.82 748.50,492.76 769.00,493.00
             778.47,493.11 788.33,494.59 796.00,500.53
             802.11,505.26 806.32,511.51 808.24,519.00
             809.38,523.44 809.00,531.17 809.00,536.00
             809.00,536.00 809.00,567.00 809.00,567.00
             809.05,569.70 808.95,572.26 811.31,574.07
             813.08,575.41 821.25,577.18 824.00,578.02
             824.00,578.02 853.00,587.95 853.00,587.95
             856.32,589.20 865.04,593.49 868.00,592.60
             871.00,591.70 878.42,583.58 881.00,581.00
             881.00,581.00 894.00,568.00 894.00,568.00
             903.24,558.76 910.07,551.34 924.00,551.01
             939.53,550.66 944.52,555.74 955.00,565.99
             955.00,565.99 973.00,583.96 973.00,583.96
             982.64,593.19 993.25,601.33 993.96,616.00
             995.03,638.14 980.30,647.70 966.00,662.00
             963.22,664.78 953.29,673.92 952.41,677.00
             951.55,679.99 956.42,689.61 957.68,693.00
             957.68,693.00 967.57,722.00 967.57,722.00
             968.41,724.94 969.77,732.48 971.72,734.40
             973.70,736.35 977.41,735.99 980.00,736.00
             980.00,736.00 1024.00,736.52 1024.00,736.52
             1028.14,737.40 1033.48,739.76 1037.00,742.10
             1053.29,752.94 1052.08,770.80 1052.00,788.00
             1051.93,801.93 1048.96,813.68 1037.00,822.21
             1029.69,827.43 1019.81,828.96 1011.00,829.00
             1011.00,829.00 970.00,829.00 970.00,829.00 Z
           M 750.00,513.30
           C 744.62,514.37 739.86,516.46 737.74,522.00
             736.61,524.94 737.00,534.37 737.00,538.00
             737.00,538.00 737.00,573.00 737.00,573.00
             736.99,578.44 736.99,584.64 732.78,588.73
             728.96,592.42 719.34,593.79 714.00,595.13
             702.10,598.12 690.36,601.98 679.00,606.60
             672.97,609.06 658.70,617.37 653.00,615.14
             649.02,613.58 643.16,607.16 640.00,604.00
             640.00,604.00 617.00,581.00 617.00,581.00
             607.75,571.76 599.77,565.99 588.00,576.19
             588.00,576.19 556.33,608.00 556.33,608.00
             552.23,613.00 550.34,619.89 553.31,626.00
             555.04,629.55 561.02,635.02 564.00,638.00
             564.00,638.00 586.00,660.00 586.00,660.00
             590.91,664.92 598.28,670.26 596.21,678.00
             596.21,678.00 588.42,696.00 588.42,696.00
             588.42,696.00 578.02,726.00 578.02,726.00
             576.24,731.83 573.58,747.03 570.49,750.89
             566.43,755.97 559.91,755.99 554.00,756.00
             554.00,756.00 510.00,756.00 510.00,756.00
             497.82,756.06 494.14,762.61 494.00,774.00
             493.89,784.02 491.20,803.20 503.01,807.30
             505.38,808.12 508.49,808.00 511.00,808.00
             511.00,808.00 554.00,808.00 554.00,808.00
             559.88,808.01 566.47,808.03 570.49,813.11
             573.16,816.48 577.53,836.36 579.14,842.00
             579.14,842.00 596.09,886.00 596.09,886.00
             598.34,893.75 590.93,899.06 586.00,904.00
             586.00,904.00 561.00,929.00 561.00,929.00
             553.77,936.24 547.83,943.85 554.80,954.00
             557.10,957.35 562.00,962.00 565.00,965.00
             565.00,965.00 573.00,973.00 573.00,973.00
             581.47,981.47 594.31,999.14 608.00,990.99
             611.51,988.91 617.84,982.16 621.00,979.00
             621.00,979.00 642.00,958.00 642.00,958.00
             646.67,953.33 651.55,946.63 659.00,948.64
             659.00,948.64 676.00,956.13 676.00,956.13
             676.00,956.13 705.00,966.28 705.00,966.28
             711.11,968.11 727.91,971.32 731.89,974.51
             736.97,978.57 736.99,985.09 737.00,991.00
             737.00,991.00 737.00,1035.00 737.00,1035.00
             737.06,1047.18 743.61,1050.86 755.00,1051.00
             765.13,1051.12 783.79,1053.65 788.26,1042.00
             789.13,1039.73 789.00,1036.44 789.00,1034.00
             789.00,1034.00 789.00,988.00 789.00,988.00
             789.07,982.79 789.70,977.98 794.11,974.51
             797.90,971.52 809.83,969.63 815.00,968.27
             815.00,968.27 851.00,955.94 851.00,955.94
             857.15,953.54 867.60,946.12 874.00,949.32
             877.44,951.04 883.09,957.10 886.00,960.00
             886.00,960.00 907.00,981.00 907.00,981.00
             911.85,985.85 916.63,992.54 924.00,992.96
             934.48,993.55 938.15,987.85 945.00,981.00
             945.00,981.00 970.61,955.00 970.61,955.00
             973.84,950.80 974.95,945.12 973.35,940.00
             971.83,935.16 966.55,930.55 963.00,927.00
             963.00,927.00 940.00,904.00 940.00,904.00
             937.12,901.12 931.05,895.65 929.75,892.00
             928.21,887.68 930.93,882.82 932.75,879.00
             932.75,879.00 941.05,859.00 941.05,859.00
             941.05,859.00 950.63,828.00 950.63,828.00
             951.85,823.06 952.68,815.93 956.27,812.22
             959.86,808.53 965.15,808.06 970.00,808.00
             970.00,808.00 1017.00,808.00 1017.00,808.00
             1028.07,807.85 1031.87,801.36 1032.00,791.00
             1032.12,780.73 1034.77,761.25 1023.00,756.74
             1020.73,755.87 1017.44,756.00 1015.00,756.00
             1015.00,756.00 970.00,756.00 970.00,756.00
             965.16,755.94 959.84,755.47 956.28,751.78
             953.04,748.43 951.78,740.61 950.63,736.00
             950.63,736.00 941.58,706.00 941.58,706.00
             941.58,706.00 932.76,685.00 932.76,685.00
             930.86,681.12 928.21,676.39 929.87,672.00
             931.35,668.08 937.89,662.11 941.00,659.00
             941.00,659.00 965.00,635.00 965.00,635.00
             971.79,628.20 977.86,620.87 971.85,611.00
             968.89,606.13 947.52,585.46 942.00,580.00
             936.78,574.85 932.82,570.81 925.00,571.06
             917.10,571.30 912.17,577.83 907.00,583.00
             907.00,583.00 886.00,604.00 886.00,604.00
             883.05,606.95 877.50,612.91 874.00,614.69
             867.66,617.91 854.55,609.71 848.00,607.01
             836.60,602.31 824.96,598.40 813.00,595.37
             807.53,593.99 797.07,592.46 793.22,588.73
             789.01,584.64 789.01,578.44 789.00,573.00
             789.00,573.00 789.00,535.00 789.00,535.00
             789.00,529.10 790.08,522.79 785.77,518.11
             783.81,515.97 781.76,514.77 779.00,513.94
             774.26,512.52 755.46,512.75 750.00,513.30 Z
           M 751.00,663.21
           C 751.00,663.21 767.00,663.21 767.00,663.21
             781.84,663.02 799.71,667.74 813.00,674.24
             830.41,682.77 843.08,691.84 855.54,707.00
             885.09,742.97 890.34,795.83 868.68,837.00
             863.18,847.45 856.43,856.30 848.42,864.91
             838.15,875.95 826.52,883.42 813.00,889.78
             797.50,897.07 778.14,901.20 761.00,901.00
             749.90,900.87 734.57,897.81 724.00,894.33
             655.59,871.79 624.07,790.20 657.32,727.00
             671.90,699.27 697.25,678.22 727.00,668.52
             734.81,665.97 742.91,664.65 751.00,663.21 Z
           M 755.00,683.14
           C 748.07,684.30 739.67,685.46 733.00,687.44
             709.63,694.36 688.43,711.78 676.67,733.00
             655.60,771.02 660.96,820.77 692.09,851.91
             702.62,862.45 715.08,869.95 729.00,875.05
             738.68,878.59 749.67,880.88 760.00,881.00
             776.79,881.19 789.59,878.57 805.00,871.85
             816.02,867.04 829.68,857.13 837.41,848.00
             871.18,808.10 870.63,750.04 833.83,712.09
             824.91,702.89 811.82,694.91 800.00,690.01
             791.00,686.29 775.74,683.12 766.00,683.14
             766.00,683.14 755.00,683.14 755.00,683.14 Z
           M 1192.00,855.43
           C 1212.49,852.90 1238.68,856.85 1239.00,883.00
             1239.00,883.00 1239.00,909.00 1239.00,909.00
             1239.02,911.40 1238.78,914.43 1240.60,916.28
             1242.28,917.98 1246.65,918.75 1249.00,919.43
             1249.00,919.43 1264.00,924.42 1264.00,924.42
             1268.06,925.94 1278.22,931.04 1282.00,929.19
             1284.16,928.14 1289.06,922.94 1291.00,921.00
             1299.84,912.16 1309.58,899.63 1323.00,899.04
             1338.90,898.35 1346.67,908.67 1357.00,919.00
             1368.39,930.39 1382.43,940.81 1378.48,959.00
             1376.04,970.25 1364.88,979.11 1357.00,987.00
             1355.04,988.96 1349.88,993.83 1348.78,996.00
             1346.72,1000.06 1352.14,1009.63 1353.66,1014.00
             1353.66,1014.00 1358.71,1030.00 1358.71,1030.00
             1359.31,1032.07 1360.21,1035.92 1361.72,1037.40
             1363.41,1039.06 1365.81,1038.96 1368.00,1039.00
             1368.00,1039.00 1394.00,1039.00 1394.00,1039.00
             1397.75,1039.05 1400.41,1039.26 1404.00,1040.55
             1424.77,1047.96 1422.03,1066.44 1422.00,1084.00
             1421.99,1091.73 1421.55,1095.47 1416.79,1101.96
             1405.90,1116.81 1386.16,1113.97 1370.00,1114.00
             1367.34,1114.01 1363.63,1113.67 1361.56,1115.60
             1359.54,1117.47 1358.13,1124.17 1357.28,1127.00
             1357.28,1127.00 1348.25,1152.00 1348.25,1152.00
             1347.28,1157.47 1357.30,1165.30 1361.00,1169.00
             1373.90,1181.90 1386.42,1195.18 1374.73,1214.00
             1371.64,1218.98 1363.44,1226.56 1359.00,1231.00
             1348.27,1241.73 1340.56,1253.31 1324.00,1252.98
             1319.36,1252.89 1315.07,1251.97 1311.00,1249.64
             1305.86,1246.69 1293.90,1233.88 1289.00,1229.00
             1285.49,1225.50 1282.45,1220.97 1277.00,1222.52
             1277.00,1222.52 1270.00,1225.32 1270.00,1225.32
             1270.00,1225.32 1253.00,1231.14 1253.00,1231.14
             1250.37,1231.90 1242.26,1234.03 1240.60,1235.72
             1238.65,1237.71 1239.01,1241.41 1239.00,1244.00
             1239.00,1244.00 1238.47,1275.00 1238.47,1275.00
             1237.39,1279.70 1234.18,1285.22 1230.70,1288.53
             1227.65,1291.43 1223.05,1294.04 1219.00,1295.21
             1210.20,1297.76 1190.42,1297.88 1182.00,1294.27
             1176.17,1291.78 1171.43,1287.52 1168.35,1282.00
             1162.87,1272.20 1165.21,1253.49 1165.00,1242.00
             1164.96,1239.81 1165.06,1237.41 1163.40,1235.72
             1161.90,1234.19 1157.18,1233.02 1155.00,1232.34
             1155.00,1232.34 1135.00,1225.68 1135.00,1225.68
             1131.93,1224.53 1126.00,1221.38 1123.00,1222.35
             1120.36,1223.21 1116.08,1227.92 1114.00,1230.00
             1109.24,1234.76 1098.08,1246.73 1093.00,1249.64
             1088.93,1251.97 1084.64,1252.89 1080.00,1252.98
             1063.44,1253.31 1055.73,1241.73 1045.00,1231.00
             1040.46,1226.46 1031.48,1218.16 1028.53,1213.00
             1026.00,1208.57 1025.01,1204.05 1025.01,1199.00
             1025.01,1184.71 1033.68,1178.32 1043.00,1169.00
             1046.77,1165.23 1056.68,1157.60 1055.61,1152.00
             1055.61,1152.00 1046.34,1126.00 1046.34,1126.00
             1045.50,1123.35 1044.30,1117.33 1042.44,1115.60
             1040.38,1113.67 1036.65,1114.01 1034.00,1114.00
             1017.26,1113.97 997.30,1116.83 986.52,1100.99
             982.59,1095.21 982.03,1091.79 982.00,1085.00
             981.97,1079.45 981.56,1063.44 982.71,1059.00
             985.76,1047.14 997.03,1039.15 1009.00,1039.00
             1009.00,1039.00 1035.00,1039.00 1035.00,1039.00
             1037.40,1038.98 1040.42,1039.22 1042.28,1037.40
             1043.79,1035.92 1044.69,1032.07 1045.29,1030.00
             1045.29,1030.00 1050.42,1014.00 1050.42,1014.00
             1051.99,1009.81 1057.20,999.90 1055.22,996.00
             1054.12,993.83 1048.96,988.96 1047.00,987.00
             1039.12,979.11 1027.96,970.25 1025.52,959.00
             1021.57,940.81 1035.61,930.39 1047.00,919.00
             1057.35,908.65 1064.98,898.34 1081.00,899.04
             1094.42,899.63 1104.16,912.16 1113.00,921.00
             1114.94,922.94 1119.84,928.14 1122.00,929.19
             1125.78,931.04 1135.94,925.94 1140.00,924.42
             1140.00,924.42 1155.00,919.43 1155.00,919.43
             1157.35,918.75 1161.72,917.98 1163.40,916.28
             1165.06,914.59 1164.96,912.19 1165.00,910.00
             1165.00,910.00 1165.00,883.00 1165.00,883.00
             1165.14,872.06 1171.69,861.79 1182.00,857.61
             1184.89,856.44 1188.88,855.94 1192.00,855.43 Z
           M 1190.09,876.21
           C 1183.64,879.37 1184.01,885.81 1184.00,892.00
             1184.00,892.00 1184.00,920.00 1184.00,920.00
             1183.99,923.94 1184.33,927.58 1181.57,930.79
             1178.11,934.80 1170.99,935.87 1166.00,937.13
             1156.43,939.53 1147.16,942.74 1138.00,946.40
             1132.20,948.72 1122.83,954.61 1117.00,951.68
             1112.69,949.52 1096.54,932.54 1092.00,928.00
             1088.87,924.87 1084.59,919.61 1080.00,919.19
             1075.31,918.75 1072.09,922.02 1069.00,925.02
             1069.00,925.02 1048.23,946.00 1048.23,946.00
             1041.86,953.77 1046.16,958.12 1052.00,964.00
             1052.00,964.00 1071.98,984.00 1071.98,984.00
             1075.95,988.08 1079.76,991.88 1078.20,998.00
             1078.20,998.00 1064.42,1035.00 1064.42,1035.00
             1062.96,1040.26 1061.29,1051.09 1057.72,1054.78
             1053.65,1058.99 1047.43,1058.99 1042.00,1059.00
             1042.00,1059.00 1012.00,1059.00 1012.00,1059.00
             999.35,1059.18 1000.89,1069.27 1001.00,1079.00
             1001.04,1082.47 1001.32,1087.85 1003.72,1090.57
             1006.24,1093.42 1010.55,1092.99 1014.00,1093.00
             1014.00,1093.00 1044.00,1093.00 1044.00,1093.00
             1048.83,1093.06 1053.98,1093.44 1057.47,1097.22
             1061.55,1101.65 1063.12,1112.85 1064.86,1119.00
             1067.18,1127.18 1070.08,1135.19 1073.43,1143.00
             1073.43,1143.00 1077.90,1153.00 1077.90,1153.00
             1080.14,1159.83 1076.47,1163.27 1071.96,1168.00
             1071.96,1168.00 1052.00,1188.00 1052.00,1188.00
             1046.97,1193.07 1041.97,1197.87 1047.31,1205.00
             1047.31,1205.00 1071.00,1228.94 1071.00,1228.94
             1074.50,1232.14 1078.26,1234.34 1083.00,1231.98
             1085.67,1230.65 1089.77,1226.23 1092.00,1224.00
             1092.00,1224.00 1109.00,1207.00 1109.00,1207.00
             1113.25,1202.81 1117.44,1197.90 1124.00,1199.64
             1124.00,1199.64 1141.00,1206.80 1141.00,1206.80
             1141.00,1206.80 1160.00,1213.28 1160.00,1213.28
             1165.26,1214.84 1176.10,1216.47 1179.89,1219.51
             1184.31,1223.04 1183.99,1226.91 1184.00,1232.00
             1184.00,1232.00 1184.00,1260.00 1184.00,1260.00
             1184.01,1264.49 1183.86,1272.17 1188.22,1274.83
             1191.24,1276.66 1203.88,1276.02 1208.00,1276.00
             1211.24,1275.98 1214.92,1276.24 1217.28,1273.57
             1220.04,1270.44 1219.99,1263.97 1220.00,1260.00
             1220.00,1260.00 1220.00,1230.00 1220.00,1230.00
             1220.06,1225.57 1220.35,1222.49 1224.11,1219.51
             1227.56,1216.77 1234.60,1216.00 1239.00,1214.85
             1248.17,1212.43 1257.26,1209.42 1266.00,1205.72
             1270.09,1203.99 1280.07,1198.76 1284.00,1199.41
             1287.77,1200.02 1292.35,1204.92 1295.00,1207.61
             1295.00,1207.61 1314.04,1226.28 1314.04,1226.28
             1318.45,1230.32 1322.51,1235.06 1329.00,1231.83
             1332.62,1230.02 1342.54,1219.46 1346.00,1216.00
             1349.20,1212.80 1356.82,1205.91 1358.26,1202.00
             1360.59,1195.67 1354.97,1190.99 1351.00,1187.00
             1351.00,1187.00 1332.01,1168.00 1332.01,1168.00
             1328.78,1164.68 1324.87,1161.05 1325.38,1156.00
             1325.70,1152.84 1328.26,1148.04 1329.58,1145.00
             1329.58,1145.00 1336.97,1126.00 1336.97,1126.00
             1338.88,1120.01 1342.72,1101.87 1345.65,1098.11
             1349.11,1093.65 1352.93,1094.01 1358.00,1094.00
             1358.00,1094.00 1389.00,1094.00 1389.00,1094.00
             1392.82,1093.95 1397.58,1093.73 1400.28,1090.58
             1403.53,1086.78 1403.05,1077.84 1403.00,1073.00
             1402.95,1069.25 1402.67,1063.33 1399.57,1060.74
             1397.47,1058.98 1394.59,1059.04 1392.00,1059.00
             1392.00,1059.00 1360.00,1059.00 1360.00,1059.00
             1355.19,1058.94 1349.89,1058.51 1346.39,1054.78
             1342.67,1050.81 1340.88,1039.58 1339.29,1034.00
             1339.29,1034.00 1332.14,1013.00 1332.14,1013.00
             1332.14,1013.00 1326.11,999.00 1326.11,999.00
             1324.16,992.92 1327.06,989.34 1331.09,985.00
             1331.09,985.00 1351.99,965.00 1351.99,965.00
             1357.03,959.82 1361.99,954.07 1356.69,947.00
             1356.69,947.00 1345.00,935.00 1345.00,935.00
             1341.38,931.38 1332.20,921.31 1328.00,919.74
             1321.44,917.28 1317.12,922.89 1313.00,927.00
             1313.00,927.00 1296.00,944.00 1296.00,944.00
             1293.14,946.85 1288.95,951.41 1285.00,952.48
             1280.19,953.78 1269.85,948.01 1265.00,946.01
             1256.72,942.61 1247.68,939.57 1239.00,937.37
             1234.40,936.21 1226.56,934.97 1223.23,931.72
             1219.67,928.27 1220.01,924.53 1220.00,920.00
             1220.00,920.00 1220.00,890.00 1220.00,890.00
             1219.95,886.10 1219.64,880.47 1216.43,877.74
             1214.00,875.66 1210.02,876.00 1207.00,876.21
             1201.86,875.99 1195.01,875.65 1190.09,876.21 Z
           M 1191.00,984.21
           C 1191.00,984.21 1205.00,984.21 1205.00,984.21
             1266.45,984.10 1307.68,1046.87 1289.98,1104.00
             1286.89,1113.95 1281.88,1123.76 1275.49,1132.00
             1266.36,1143.76 1256.22,1151.97 1243.00,1158.74
             1227.67,1166.60 1213.90,1168.19 1197.00,1168.00
             1163.79,1167.61 1131.92,1144.71 1118.31,1115.00
             1111.24,1099.58 1109.92,1088.66 1110.00,1072.00
             1110.17,1036.75 1134.78,1003.50 1167.00,990.45
             1175.14,987.15 1182.41,985.72 1191.00,984.21 Z
           M 1191.00,1004.29
           C 1158.18,1009.72 1130.16,1036.57 1130.00,1071.00
             1129.94,1082.95 1129.55,1089.33 1133.70,1101.00
             1142.85,1126.71 1168.10,1147.67 1196.00,1148.00
             1209.95,1148.16 1221.09,1148.08 1234.00,1141.63
             1280.54,1118.36 1288.49,1054.11 1249.00,1020.30
             1232.29,1005.99 1212.36,1002.26 1191.00,1004.29 Z" />
</svg>
