<?xml version="1.0" encoding="UTF-8" standalone="no"?>
<!DOCTYPE svg PUBLIC "-//W3C//DTD SVG 20010904//EN"
              "http://www.w3.org/TR/2001/REC-SVG-20010904/DTD/svg10.dtd">

<svg xmlns="http://www.w3.org/2000/svg"
     width="7.11111in" height="7.11111in"
     viewBox="0 0 512 512">
  <path id="Selection"
        fill="#6c757d" stroke="#6c757d" stroke-width="1"
        d="M 309.00,132.00
           C 309.00,132.00 293.00,118.75 293.00,118.75
             293.00,118.75 258.00,90.20 258.00,90.20
             250.67,84.33 240.58,78.31 240.04,68.00
             239.21,52.12 253.96,44.34 268.00,44.01
             273.44,43.89 277.91,44.39 283.00,46.47
             289.17,49.00 312.13,67.36 319.00,72.65
             319.00,72.65 408.00,141.12 408.00,141.12
             422.20,151.95 449.15,171.74 460.91,183.17
             482.55,204.18 497.70,232.51 503.60,262.00
             504.70,267.47 505.93,274.47 506.00,280.00
             506.31,306.58 505.87,322.72 495.55,348.00
             472.52,404.42 418.25,440.90 359.00,449.13
             359.00,449.13 340.00,451.00 340.00,451.00
             324.45,451.18 309.30,450.61 294.00,447.55
             242.16,437.19 196.63,405.76 172.75,358.00
             162.94,338.38 156.07,312.94 160.00,291.00
             160.00,291.00 91.00,347.42 91.00,347.42
             80.79,355.79 64.21,370.96 53.00,376.22
             33.79,385.23 6.30,379.28 6.00,354.00
             5.76,333.11 16.87,325.01 32.00,313.35
             32.00,313.35 53.00,297.13 53.00,297.13
             53.00,297.13 156.00,218.12 156.00,218.12
             156.00,218.12 202.00,183.00 202.00,183.00
             202.00,183.00 103.00,183.00 103.00,183.00
             96.87,182.99 92.47,182.79 87.00,179.52
             75.82,172.82 74.20,159.52 80.97,149.00
             88.13,137.87 100.24,133.02 113.00,133.00
             113.00,133.00 232.00,133.00 232.00,133.00
             232.00,133.00 247.00,132.00 247.00,132.00
             247.00,132.00 309.00,132.00 309.00,132.00 Z
           M 325.00,183.14
           C 325.00,183.14 309.00,185.45 309.00,185.45
             288.93,189.49 267.39,200.37 253.04,215.01
             217.38,251.40 218.01,309.64 255.01,344.91
             278.91,367.69 313.55,377.71 346.00,373.71
             361.63,371.79 377.67,366.78 391.00,358.31
             403.71,350.22 413.44,341.51 421.97,329.00
             430.99,315.78 436.97,299.07 437.00,283.00
             437.03,266.25 436.06,255.56 428.68,240.00
             411.74,204.25 371.72,183.17 333.00,183.14
             333.00,183.14 325.00,183.14 325.00,183.14 Z
           M 326.00,214.42
           C 355.73,210.79 387.35,226.39 398.54,255.00
             402.10,264.10 402.11,270.50 402.00,280.00
             401.87,291.04 397.14,302.30 390.50,311.00
             385.54,317.50 379.95,322.61 373.00,326.94
             365.47,331.62 355.80,335.40 347.00,336.70
             325.81,339.83 303.43,335.28 287.00,320.82
             256.68,294.13 259.93,247.76 294.00,225.70
             304.58,218.85 313.75,216.27 326.00,214.42 Z" />
</svg>
