<?xml version="1.0" encoding="UTF-8" standalone="no"?>
<!DOCTYPE svg PUBLIC "-//W3C//DTD SVG 20010904//EN"
              "http://www.w3.org/TR/2001/REC-SVG-20010904/DTD/svg10.dtd">

<svg xmlns="http://www.w3.org/2000/svg"
     width="6.82667in" height="6.82667in"
     viewBox="0 0 2048 2048">
  <path id="Selection"
        fill="#6c757d" stroke="#6c757d" stroke-width="1"
        d="M 1004.00,5.00
           C 1004.00,5.00 1007.09,33.00 1007.09,33.00
             1007.09,33.00 1011.17,81.00 1011.17,81.00
             1011.17,81.00 1023.83,225.00 1023.83,225.00
             1023.83,225.00 1025.17,244.00 1025.17,244.00
             1025.17,244.00 1047.83,504.00 1047.83,504.00
             1047.83,504.00 1052.17,558.00 1052.17,558.00
             1052.17,558.00 1063.83,690.00 1063.83,690.00
             1063.83,690.00 1065.17,709.00 1065.17,709.00
             1065.17,709.00 1072.09,789.00 1072.09,789.00
             1072.09,789.00 1074.83,818.00 1074.83,818.00
             1074.83,818.00 1079.83,876.00 1079.83,876.00
             1079.83,876.00 1088.17,976.00 1088.17,976.00
             1088.17,976.00 1093.09,1033.00 1093.09,1033.00
             1093.09,1033.00 1094.40,1054.91 1094.40,1054.91
             1094.40,1054.91 1088.00,1061.87 1088.00,1061.87
             1088.00,1061.87 1072.00,1075.42 1072.00,1075.42
             1072.00,1075.42 1017.00,1122.13 1017.00,1122.13
             1017.00,1122.13 806.00,1301.42 806.00,1301.42
             806.00,1301.42 541.00,1526.73 541.00,1526.73
             541.00,1526.73 266.00,1760.27 266.00,1760.27
             266.00,1760.27 93.00,1907.27 93.00,1907.27
             93.00,1907.27 34.00,1957.42 34.00,1957.42
             34.00,1957.42 5.00,1981.00 5.00,1981.00
             5.00,1981.00 18.74,1953.00 18.74,1953.00
             18.74,1953.00 40.75,1909.00 40.75,1909.00
             40.75,1909.00 120.75,1751.00 120.75,1751.00
             120.75,1751.00 241.75,1512.00 241.75,1512.00
             241.75,1512.00 372.74,1253.00 372.74,1253.00
             372.74,1253.00 456.26,1087.00 456.26,1087.00
             456.26,1087.00 587.25,828.00 587.25,828.00
             587.25,828.00 594.75,814.00 594.75,814.00
             594.75,814.00 639.75,725.00 639.75,725.00
             639.75,725.00 677.26,650.00 677.26,650.00
             677.26,650.00 727.75,551.00 727.75,551.00
             727.75,551.00 815.74,377.00 815.74,377.00
             815.74,377.00 853.25,302.00 853.25,302.00
             853.25,302.00 903.74,203.00 903.74,203.00
             903.74,203.00 947.74,116.00 947.74,116.00
             947.74,116.00 992.22,28.00 992.22,28.00
             992.22,28.00 1004.00,5.00 1004.00,5.00 Z
           M 1049.00,39.00
           C 1049.00,39.00 1059.25,57.00 1059.25,57.00
             1059.25,57.00 1077.25,93.00 1077.25,93.00
             1077.25,93.00 1137.25,212.00 1137.25,212.00
             1137.25,212.00 1334.25,604.00 1334.25,604.00
             1334.25,604.00 1475.25,885.00 1475.25,885.00
             1475.25,885.00 1482.75,899.00 1482.75,899.00
             1482.75,899.00 1564.25,1062.00 1564.25,1062.00
             1564.25,1062.00 1571.75,1076.00 1571.75,1076.00
             1571.75,1076.00 1829.25,1589.00 1829.25,1589.00
             1829.25,1589.00 1836.75,1603.00 1836.75,1603.00
             1836.75,1603.00 1981.25,1891.00 1981.25,1891.00
             1981.25,1891.00 2027.25,1982.00 2027.25,1982.00
             2027.25,1982.00 2040.25,2008.00 2040.25,2008.00
             2040.25,2008.00 2048.00,2026.00 2048.00,2026.00
             2048.00,2026.00 1986.00,2001.20 1986.00,2001.20
             1986.00,2001.20 1851.00,1946.60 1851.00,1946.60
             1851.00,1946.60 1657.00,1868.40 1657.00,1868.40
             1657.00,1868.40 1436.00,1779.00 1436.00,1779.00
             1436.00,1779.00 1265.00,1710.00 1265.00,1710.00
             1265.00,1710.00 1217.00,1690.60 1217.00,1690.60
             1217.00,1690.60 1196.74,1681.36 1196.74,1681.36
             1196.74,1681.36 1194.83,1672.00 1194.83,1672.00
             1194.83,1672.00 1192.91,1651.00 1192.91,1651.00
             1192.91,1651.00 1190.17,1623.00 1190.17,1623.00
             1190.17,1623.00 1185.83,1572.00 1185.83,1572.00
             1185.83,1572.00 1164.17,1332.00 1164.17,1332.00
             1164.17,1332.00 1157.83,1258.00 1157.83,1258.00
             1157.83,1258.00 1143.83,1101.00 1143.83,1101.00
             1143.83,1101.00 1102.17,638.00 1102.17,638.00
             1102.17,638.00 1085.83,452.00 1085.83,452.00
             1085.83,452.00 1066.17,235.00 1066.17,235.00
             1066.17,235.00 1061.83,184.00 1061.83,184.00
             1061.83,184.00 1053.83,94.00 1053.83,94.00
             1053.83,94.00 1049.91,50.00 1049.91,50.00
             1049.91,50.00 1049.00,39.00 1049.00,39.00 Z
           M 1100.00,1105.00
           C 1100.00,1105.00 1102.17,1123.00 1102.17,1123.00
             1102.17,1123.00 1106.09,1166.00 1106.09,1166.00
             1106.09,1166.00 1110.83,1216.00 1110.83,1216.00
             1110.83,1216.00 1117.17,1288.00 1117.17,1288.00
             1117.17,1288.00 1139.17,1530.00 1139.17,1530.00
             1139.17,1530.00 1147.17,1618.00 1147.17,1618.00
             1147.17,1618.00 1151.00,1665.00 1151.00,1665.00
             1151.00,1665.00 1119.00,1652.40 1119.00,1652.40
             1119.00,1652.40 1066.00,1631.20 1066.00,1631.20
             1066.00,1631.20 901.00,1565.20 901.00,1565.20
             901.00,1565.20 749.00,1504.40 749.00,1504.40
             749.00,1504.40 699.00,1484.40 699.00,1484.40
             699.00,1484.40 671.00,1473.00 671.00,1473.00
             671.00,1473.00 688.00,1457.13 688.00,1457.13
             688.00,1457.13 720.00,1429.73 720.00,1429.73
             720.00,1429.73 817.00,1346.73 817.00,1346.73
             817.00,1346.73 1003.00,1187.73 1003.00,1187.73
             1003.00,1187.73 1065.00,1134.73 1065.00,1134.73
             1065.00,1134.73 1100.00,1105.00 1100.00,1105.00 Z
           M 0.00,2043.00
           C 2.89,2037.39 10.12,2032.51 15.00,2028.41
             15.00,2028.41 44.00,2003.75 44.00,2003.75
             44.00,2003.75 142.00,1920.58 142.00,1920.58
             142.00,1920.58 347.00,1746.27 347.00,1746.27
             347.00,1746.27 483.00,1630.87 483.00,1630.87
             483.00,1630.87 595.00,1535.73 595.00,1535.73
             595.00,1535.73 625.00,1510.13 625.00,1510.13
             627.76,1507.76 634.62,1501.33 638.00,1500.95
             640.25,1500.69 643.85,1502.52 646.00,1503.40
             646.00,1503.40 664.00,1510.60 664.00,1510.60
             664.00,1510.60 730.00,1537.20 730.00,1537.20
             730.00,1537.20 969.00,1633.60 969.00,1633.60
             969.00,1633.60 1674.00,1918.00 1674.00,1918.00
             1674.00,1918.00 1777.00,1959.60 1777.00,1959.60
             1777.00,1959.60 1891.00,2005.58 1891.00,2005.58
             1891.00,2005.58 1954.00,2030.99 1954.00,2030.99
             1960.65,2033.73 1976.27,2038.83 1981.00,2043.00
             1981.00,2043.00 0.00,2043.00 0.00,2043.00 Z" />
</svg>
