<?xml version="1.0" encoding="UTF-8" standalone="no"?>
<!DOCTYPE svg PUBLIC "-//W3C//DTD SVG 20010904//EN"
              "http://www.w3.org/TR/2001/REC-SVG-20010904/DTD/svg10.dtd">

<svg xmlns="http://www.w3.org/2000/svg"
     width="5.27778in" height="5.94444in"
     viewBox="0 0 380 428">
  <path id="Selection"
        fill="#6c757d" stroke="#6c757d" stroke-width="1"
        d="M 185.00,0.44
           C 200.99,-1.61 210.87,6.36 224.00,13.85
             224.00,13.85 289.00,51.40 289.00,51.40
             289.00,51.40 344.00,83.15 344.00,83.15
             350.04,86.60 365.43,95.04 369.70,99.30
             377.55,107.12 379.98,116.28 380.00,127.00
             380.00,127.00 380.00,301.00 380.00,301.00
             379.96,326.74 365.74,332.48 346.00,343.72
             346.00,343.72 246.00,401.42 246.00,401.42
             246.00,401.42 220.00,416.42 220.00,416.42
             211.44,421.39 205.06,425.98 195.00,427.56
             181.07,429.76 171.43,422.98 160.00,416.42
             160.00,416.42 113.00,389.28 113.00,389.28
             113.00,389.28 36.00,344.85 36.00,344.85
             29.96,341.40 14.57,332.96 10.30,328.70
             2.45,320.88 0.02,311.72 0.00,301.00
             0.00,301.00 0.00,127.00 0.00,127.00
             0.04,101.46 15.49,94.82 35.00,83.72
             35.00,83.72 134.00,26.58 134.00,26.58
             147.39,18.90 170.82,3.09 185.00,0.44 Z
           M 246.00,181.00
           C 251.85,179.29 256.80,175.52 262.00,172.40
             262.00,172.40 286.00,158.00 286.00,158.00
             288.80,156.18 296.57,152.26 296.91,148.91
             297.15,146.54 294.42,142.87 293.09,141.00
             289.10,135.39 282.11,126.89 277.00,122.42
             253.28,101.71 224.96,88.38 193.00,88.00
             175.98,87.80 154.35,91.85 139.00,99.26
             118.19,109.30 102.43,121.06 88.74,140.00
             51.72,191.23 58.14,263.26 105.01,306.16
             116.48,316.65 127.62,324.03 142.00,329.99
             155.52,335.60 173.34,339.82 188.00,340.00
             221.52,340.39 251.00,328.28 276.00,306.28
             281.98,301.01 287.65,294.45 292.36,288.00
             293.83,285.98 297.17,281.66 296.91,279.10
             296.56,275.78 287.83,271.70 285.00,270.00
             285.00,270.00 260.00,255.40 260.00,255.40
             254.61,252.20 249.21,248.26 243.00,247.00
             239.20,253.52 234.82,258.01 229.00,262.74
             202.25,284.48 163.96,280.49 141.17,255.00
             127.82,240.07 125.78,227.08 126.00,208.00
             126.36,177.77 153.24,152.98 182.00,149.00
             184.98,148.59 187.98,147.97 191.00,148.10
             215.62,149.19 232.59,160.88 246.00,181.00 Z
           M 303.00,193.00
           C 303.00,193.00 290.00,193.00 290.00,193.00
             290.00,193.00 290.00,208.00 290.00,208.00
             290.00,208.00 276.00,208.00 276.00,208.00
             276.00,208.00 276.00,221.00 276.00,221.00
             276.00,221.00 289.00,221.00 289.00,221.00
             289.00,221.00 289.00,235.00 289.00,235.00
             289.00,235.00 302.00,235.00 302.00,235.00
             302.00,235.00 302.00,221.00 302.00,221.00
             302.00,221.00 316.00,221.00 316.00,221.00
             316.00,221.00 317.00,207.00 317.00,207.00
             317.00,207.00 303.00,207.00 303.00,207.00
             303.00,207.00 303.00,193.00 303.00,193.00 Z
           M 354.00,193.00
           C 354.00,193.00 341.00,193.00 341.00,193.00
             341.00,193.00 341.00,208.00 341.00,208.00
             341.00,208.00 327.00,208.00 327.00,208.00
             327.00,208.00 327.00,221.00 327.00,221.00
             327.00,221.00 341.00,221.00 341.00,221.00
             341.00,221.00 341.00,235.00 341.00,235.00
             341.00,235.00 354.00,235.00 354.00,235.00
             354.00,235.00 354.00,221.00 354.00,221.00
             354.00,221.00 368.00,221.00 368.00,221.00
             368.00,221.00 368.00,207.00 368.00,207.00
             368.00,207.00 354.00,207.00 354.00,207.00
             354.00,207.00 354.00,193.00 354.00,193.00 Z" />
</svg>
