<?xml version="1.0" encoding="UTF-8" standalone="no"?>
<!DOCTYPE svg PUBLIC "-//W3C//DTD SVG 20010904//EN"
              "http://www.w3.org/TR/2001/REC-SVG-20010904/DTD/svg10.dtd">

<svg xmlns="http://www.w3.org/2000/svg"
     width="329.806mm" height="369.312mm"
     viewBox="0 0 935 1047">
  <path id="Selection"
        fill="#6c757d" stroke="#6c757d" stroke-width="1"
        d="M 389.00,33.00
           C 392.17,28.06 407.20,21.42 412.91,17.92
             419.16,14.10 429.33,8.01 436.00,5.50
             436.00,5.50 448.00,3.20 448.00,3.20
             454.90,1.77 455.60,0.10 463.00,0.00
             483.98,-0.27 473.97,0.49 487.00,3.34
             487.00,3.34 496.09,4.93 496.09,4.93
             503.56,7.29 514.75,14.68 522.00,18.62
             522.00,18.62 538.99,28.58 538.99,28.58
             543.79,31.03 551.25,34.34 554.00,39.00
             560.01,39.05 565.07,43.18 570.00,46.25
             570.00,46.25 595.00,60.47 595.00,60.47
             598.72,62.38 600.87,64.71 605.00,65.00
             605.00,65.00 633.00,84.00 633.00,84.00
             639.32,84.48 641.82,87.90 647.00,90.86
             647.00,90.86 657.72,96.36 657.72,96.36
             657.72,96.36 663.04,100.22 663.04,100.22
             663.04,100.22 671.00,104.49 671.00,104.49
             675.69,106.90 683.34,110.49 686.00,115.00
             691.40,115.28 700.28,121.46 705.29,124.49
             705.29,124.49 729.00,137.51 729.00,137.51
             729.00,137.51 742.42,145.98 742.42,145.98
             742.42,145.98 778.01,166.29 778.01,166.29
             778.01,166.29 806.72,182.30 806.72,182.30
             806.72,182.30 812.59,186.54 812.59,186.54
             812.59,186.54 825.00,192.88 825.00,192.88
             825.00,192.88 830.58,196.75 830.58,196.75
             830.58,196.75 860.00,213.07 860.00,213.07
             860.00,213.07 871.00,219.97 871.00,219.97
             881.24,225.57 891.61,230.69 901.00,237.74
             912.77,246.59 913.73,253.27 921.00,259.00
             921.00,259.00 920.00,262.00 920.00,262.00
             926.84,266.32 932.86,284.97 933.00,293.00
             933.00,293.00 933.00,387.00 933.00,387.00
             933.00,387.00 933.00,763.00 933.00,763.00
             933.00,763.00 931.00,762.00 931.00,762.00
             931.00,762.00 929.00,776.00 929.00,776.00
             924.99,779.79 923.28,785.37 920.37,790.00
             915.79,797.28 909.15,805.80 902.58,811.31
             896.87,816.09 886.77,821.19 880.00,825.38
             875.92,827.90 872.58,828.73 870.00,833.00
             865.89,833.01 863.19,833.76 862.00,838.00
             854.86,837.72 848.46,843.74 842.59,847.17
             842.59,847.17 822.01,858.63 822.01,858.63
             822.01,858.63 807.58,867.27 807.58,867.27
             807.58,867.27 773.39,886.85 773.39,886.85
             773.39,886.85 768.02,889.54 768.02,889.54
             768.02,889.54 717.00,919.01 717.00,919.01
             717.00,919.01 710.58,923.31 710.58,923.31
             710.58,923.31 684.58,938.20 684.58,938.20
             684.58,938.20 670.58,945.61 670.58,945.61
             670.58,945.61 650.00,957.76 650.00,957.76
             644.26,960.95 636.01,964.93 632.00,970.00
             627.41,970.11 625.92,971.62 623.00,975.00
             617.94,975.14 615.30,977.69 611.00,980.21
             605.18,983.61 591.99,990.42 588.00,995.00
             582.94,995.37 582.58,996.91 578.56,999.28
             578.56,999.28 562.01,1008.64 562.01,1008.64
             562.01,1008.64 514.28,1035.67 514.28,1035.67
             504.80,1041.02 496.33,1046.94 485.00,1047.00
             485.00,1047.00 448.00,1047.00 448.00,1047.00
             440.76,1046.89 442.21,1044.90 436.00,1046.00
             432.52,1042.49 413.80,1032.71 408.01,1029.46
             408.01,1029.46 367.91,1006.24 367.91,1006.24
             367.91,1006.24 353.00,998.05 353.00,998.05
             353.00,998.05 331.72,985.44 331.72,985.44
             327.71,983.08 323.71,980.13 319.00,980.00
             316.63,976.10 313.82,975.36 310.00,973.14
             310.00,973.14 292.00,962.65 292.00,962.65
             292.00,962.65 230.09,927.07 230.09,927.07
             224.34,923.93 210.46,914.36 205.00,914.00
             199.36,907.73 185.38,901.68 177.61,896.86
             177.61,896.86 109.01,857.37 109.01,857.37
             109.01,857.37 88.00,845.21 88.00,845.21
             83.72,842.59 78.05,838.30 73.00,838.00
             68.60,832.82 66.61,833.15 61.28,829.95
             61.28,829.95 37.09,815.72 37.09,815.72
             20.60,804.60 8.88,786.88 3.58,767.91
             1.24,759.51 0.02,761.25 0.00,752.00
             0.00,752.00 0.00,389.00 0.00,389.00
             0.00,389.00 0.00,330.00 0.00,330.00
             0.00,330.00 0.00,298.00 0.00,298.00
             0.01,289.52 0.92,290.72 3.34,283.00
             7.88,268.54 8.13,266.71 17.55,253.83
             25.78,242.58 30.08,238.82 41.98,231.50
             46.39,228.79 48.56,226.42 54.00,226.00
             57.36,220.94 72.28,214.55 77.91,210.89
             77.91,210.89 112.96,190.66 112.96,190.66
             112.96,190.66 131.00,180.41 131.00,180.41
             131.00,180.41 143.42,172.72 143.42,172.72
             143.42,172.72 151.00,168.87 151.00,168.87
             151.00,168.87 172.99,156.21 172.99,156.21
             177.91,153.40 179.93,150.46 186.00,150.00
             188.25,146.64 198.08,141.46 202.00,139.28
             202.00,139.28 209.91,135.03 209.91,135.03
             209.91,135.03 215.17,131.31 215.17,131.31
             215.17,131.31 226.12,125.74 226.12,125.74
             226.12,125.74 237.00,119.24 237.00,119.24
             237.00,119.24 258.00,106.72 258.00,106.72
             258.00,106.72 291.00,87.82 291.00,87.82
             291.00,87.82 316.00,73.95 316.00,73.95
             316.00,73.95 328.00,66.51 328.00,66.51
             328.00,66.51 340.91,59.61 340.91,59.61
             340.91,59.61 346.17,55.85 346.17,55.85
             356.63,49.36 378.14,40.13 386.00,32.00
             386.00,32.00 389.00,33.00 389.00,33.00 Z
           M 735.00,369.00
           C 735.00,369.00 717.24,342.00 717.24,342.00
             683.31,295.67 639.17,262.91 587.00,239.84
             587.00,239.84 578.00,236.59 578.00,236.59
             578.00,236.59 558.00,229.37 558.00,229.37
             558.00,229.37 547.00,226.75 547.00,226.75
             547.00,226.75 539.00,224.22 539.00,224.22
             539.00,224.22 524.00,221.58 524.00,221.58
             524.00,221.58 514.00,219.20 514.00,219.20
             514.00,219.20 481.53,216.33 481.53,216.33
             481.53,216.33 469.00,216.33 469.00,216.33
             377.29,213.89 283.92,257.63 226.53,329.29
             204.40,356.94 187.81,384.52 175.99,418.00
             175.99,418.00 168.63,439.00 168.63,439.00
             168.63,439.00 165.63,453.00 165.63,453.00
             165.63,453.00 163.39,460.00 163.39,460.00
             163.39,460.00 162.54,467.00 162.54,467.00
             162.54,467.00 158.00,497.00 158.00,497.00
             158.00,497.00 157.00,524.00 157.00,524.00
             157.00,524.00 158.00,545.00 158.00,545.00
             158.00,545.00 158.00,552.00 158.00,552.00
             158.08,558.14 159.70,562.97 160.57,569.00
             160.57,569.00 163.38,589.00 163.38,589.00
             163.38,589.00 165.62,596.00 165.62,596.00
             165.62,596.00 168.37,609.00 168.37,609.00
             168.37,609.00 170.94,616.00 170.94,616.00
             170.94,616.00 178.58,639.00 178.58,639.00
             191.21,670.46 210.85,702.65 233.29,728.04
             245.64,742.00 259.30,755.17 273.95,766.71
             273.95,766.71 290.46,778.80 290.46,778.80
             293.84,781.12 295.76,781.33 298.00,785.00
             304.86,786.55 310.10,791.61 316.28,794.79
             329.82,801.75 343.59,808.93 358.00,813.97
             358.00,813.97 383.00,822.13 383.00,822.13
             383.00,822.13 389.83,823.49 389.83,823.49
             389.83,823.49 395.09,825.59 395.09,825.59
             395.09,825.59 401.00,826.26 401.00,826.26
             401.00,826.26 407.00,827.74 407.00,827.74
             407.00,827.74 413.00,828.27 413.00,828.27
             418.46,829.31 417.36,830.89 425.00,831.10
             425.00,831.10 435.00,831.10 435.00,831.10
             441.45,832.10 438.34,832.98 448.00,833.00
             448.00,833.00 485.00,833.00 485.00,833.00
             494.66,832.98 491.55,832.10 498.00,831.10
             498.00,831.10 508.00,831.10 508.00,831.10
             516.11,830.89 514.38,829.23 519.09,828.03
             519.09,828.03 525.00,828.03 525.00,828.03
             525.00,828.03 532.00,826.21 532.00,826.21
             532.00,826.21 537.91,825.59 537.91,825.59
             537.91,825.59 543.17,823.49 543.17,823.49
             543.17,823.49 557.00,820.33 557.00,820.33
             557.00,820.33 591.04,807.30 591.04,807.30
             596.56,804.89 606.51,801.81 610.00,797.00
             620.41,795.83 642.66,776.86 650.00,775.00
             652.52,770.85 664.59,762.58 669.09,758.68
             682.49,747.05 690.68,738.74 702.28,725.31
             706.39,720.55 715.15,711.97 716.00,706.00
             721.51,702.92 731.63,686.19 734.00,680.00
             734.00,680.00 697.04,658.76 697.04,658.76
             691.45,655.49 682.15,648.69 676.00,648.00
             673.28,643.67 664.68,639.95 660.17,637.20
             660.17,637.20 651.17,632.29 651.17,632.29
             651.17,632.29 618.98,613.38 618.98,613.38
             615.59,611.67 604.36,603.83 601.38,605.16
             599.62,605.95 596.01,612.36 594.39,614.42
             586.67,624.17 583.48,628.61 574.25,637.42
             558.01,652.93 541.77,662.30 521.17,670.63
             521.17,670.63 513.00,673.98 513.00,673.98
             513.00,673.98 506.09,675.41 506.09,675.41
             506.09,675.41 500.83,677.51 500.83,677.51
             500.83,677.51 484.00,680.00 484.00,680.00
             484.00,680.00 451.00,680.00 451.00,680.00
             447.65,679.99 436.13,678.32 433.00,677.51
             433.00,677.51 427.00,675.39 427.00,675.39
             427.00,675.39 416.17,672.56 416.17,672.56
             397.64,665.90 380.03,655.75 365.13,642.82
             338.74,619.92 319.29,587.62 313.70,553.00
             312.29,544.26 311.02,547.75 311.00,535.00
             311.00,535.00 311.00,512.00 311.00,512.00
             311.02,502.61 311.77,505.55 313.47,498.00
             313.47,498.00 314.37,491.00 314.37,491.00
             314.37,491.00 318.34,478.00 318.34,478.00
             318.34,478.00 321.36,468.17 321.36,468.17
             332.81,440.27 354.35,412.82 379.46,396.03
             392.21,387.50 406.29,380.28 421.00,375.87
             421.00,375.87 428.00,374.22 428.00,374.22
             433.45,372.67 439.38,370.99 445.00,370.02
             445.00,370.02 454.00,370.02 454.00,370.02
             454.00,370.02 463.00,369.00 463.00,369.00
             463.00,369.00 478.00,370.11 478.00,370.11
             478.00,370.11 489.00,370.11 489.00,370.11
             512.39,373.63 536.53,384.29 556.00,397.46
             567.34,405.13 581.17,418.06 589.37,429.00
             589.37,429.00 597.52,440.07 597.52,440.07
             598.69,441.86 599.81,444.27 602.21,444.56
             604.63,444.86 609.60,441.64 611.83,440.37
             611.83,440.37 635.09,426.57 635.09,426.57
             635.09,426.57 695.17,392.04 695.17,392.04
             695.17,392.04 735.00,369.00 735.00,369.00 Z
           M 934.00,290.00
           C 934.00,290.00 935.00,290.00 935.00,290.00
             935.00,290.00 934.00,291.00 934.00,291.00
             934.00,291.00 934.00,290.00 934.00,290.00 Z
           M 692.00,437.00
           C 692.00,437.00 674.00,437.00 674.00,437.00
             674.00,437.00 668.17,438.57 668.17,438.57
             668.17,438.57 666.28,449.00 666.28,449.00
             666.28,449.00 664.00,477.00 664.00,477.00
             664.00,477.00 639.00,477.00 639.00,477.00
             639.00,477.00 639.00,501.00 639.00,501.00
             639.00,501.00 661.00,501.00 661.00,501.00
             661.00,501.00 658.00,537.00 658.00,537.00
             658.00,537.00 633.00,537.00 633.00,537.00
             633.00,537.00 633.00,561.00 633.00,561.00
             633.00,561.00 655.00,561.00 655.00,561.00
             655.00,561.00 651.00,605.00 651.00,605.00
             651.00,605.00 675.00,605.00 675.00,605.00
             675.00,605.00 677.98,578.00 677.98,578.00
             678.15,575.47 678.94,564.93 680.02,563.31
             681.60,560.95 684.48,561.05 687.00,561.00
             687.00,561.00 710.00,561.00 710.00,561.00
             710.00,561.00 706.00,605.00 706.00,605.00
             706.00,605.00 730.00,605.00 730.00,605.00
             730.00,605.00 734.00,561.00 734.00,561.00
             734.00,561.00 759.00,561.00 759.00,561.00
             759.00,561.00 759.00,537.00 759.00,537.00
             759.00,537.00 737.00,537.00 737.00,537.00
             737.00,537.00 739.58,511.00 739.58,511.00
             739.96,508.13 739.68,503.77 742.31,502.02
             744.16,500.79 747.81,501.00 750.00,501.00
             750.00,501.00 766.00,501.00 766.00,501.00
             766.00,501.00 766.00,477.00 766.00,477.00
             766.00,477.00 743.00,477.00 743.00,477.00
             743.00,477.00 747.00,437.00 747.00,437.00
             747.00,437.00 722.00,437.00 722.00,437.00
             722.00,437.00 719.58,465.00 719.58,465.00
             719.28,467.26 719.03,473.11 717.98,474.69
             716.40,477.05 713.52,476.95 711.00,477.00
             711.00,477.00 688.00,477.00 688.00,477.00
             688.00,477.00 692.00,437.00 692.00,437.00 Z
           M 682.00,537.00
           C 682.00,537.00 684.72,511.00 684.72,511.00
             684.72,511.00 686.74,501.99 686.74,501.99
             686.74,501.99 692.00,501.00 692.00,501.00
             692.00,501.00 716.00,501.00 716.00,501.00
             716.00,501.00 713.42,527.00 713.42,527.00
             713.42,527.00 711.40,535.98 711.40,535.98
             711.40,535.98 706.00,537.00 706.00,537.00
             706.00,537.00 682.00,537.00 682.00,537.00 Z
           M 934.00,759.00
           C 934.00,759.00 935.00,759.00 935.00,759.00
             935.00,759.00 934.00,760.00 934.00,760.00
             934.00,760.00 934.00,759.00 934.00,759.00 Z
           M 657.00,955.00
           C 657.00,955.00 658.00,955.00 658.00,955.00
             658.00,955.00 657.00,956.00 657.00,956.00
             657.00,956.00 657.00,955.00 657.00,955.00 Z" />
</svg>
