<?xml version="1.0" encoding="UTF-8" standalone="no"?>
<!DOCTYPE svg PUBLIC "-//W3C//DTD SVG 20010904//EN"
              "http://www.w3.org/TR/2001/REC-SVG-20010904/DTD/svg10.dtd">

<svg xmlns="http://www.w3.org/2000/svg"
     width="0.853333in" height="0.853333in"
     viewBox="0 0 256 256">
<path id="TorchBase"
        fill="#4a3004" stroke="#4a3004" stroke-width="1"
        d="M 256.00,129.00
           C 256.00,129.00 256.00,139.00 256.00,139.00
             255.96,167.27 235.96,191.26 213.00,205.58
             171.40,231.52 115.75,234.54 70.00,218.66
             40.74,208.50 11.56,186.81 2.44,156.00
             -0.45,146.23 -0.11,139.96 0.00,130.00
             0.37,98.39 27.68,72.49 54.00,59.25
             59.74,56.36 76.10,48.40 82.00,50.00
             43.91,66.99 15.61,108.99 39.45,149.00
             44.40,157.31 51.54,165.40 59.00,171.54
             104.06,208.62 186.03,209.10 230.00,169.83
             237.89,162.78 244.97,154.50 249.73,145.00
             249.73,145.00 256.00,129.00 256.00,129.00 Z" />
<path id="FlameOuter"
        fill="#e25822" stroke="#e25822" stroke-width="1"
        d="M 124.00,54.00
           C 128.18,55.24 129.73,57.26 132.26,60.75
             142.37,74.72 135.20,90.40 127.00,103.00
             124.37,107.05 119.95,114.01 120.63,119.00
             121.87,128.03 131.08,132.51 135.98,122.98
             138.11,118.83 136.08,114.13 135.00,110.00
             143.99,116.50 148.86,127.14 144.73,138.00
             143.35,141.62 141.03,144.74 139.00,148.00
             147.46,141.60 154.41,132.21 153.79,121.00
             153.01,106.82 142.56,97.84 155.15,83.00
             154.63,87.80 153.91,90.13 155.15,95.00
             158.13,104.85 166.78,112.25 171.37,121.00
             178.97,135.50 177.96,150.64 170.48,165.00
             157.54,189.84 118.65,196.38 96.73,180.21
             85.23,171.73 77.48,157.49 78.04,143.00
             78.24,137.88 79.00,132.23 82.00,128.00
             84.28,140.08 90.88,150.29 104.00,152.00
             96.93,144.80 90.35,142.39 90.02,130.00
             89.53,112.46 104.13,98.94 114.55,86.42
             119.94,79.95 126.45,69.87 125.78,61.00
             125.60,58.62 124.73,56.25 124.00,54.00 Z" />
<path id="FlameInner"
        fill="#e2a122" stroke="#e2a122" stroke-width="1"
        d="M 0.00,0.00
           M 133.76,86.00
           C 133.76,86.00 132.00,86.00 132.00,86.00
             126.69,95.15 118.39,99.01 119.04,115.00
             119.20,119.02 119.69,123.44 123.00,126.00
             123.00,126.00 122.00,128.00 122.00,128.00
             122.00,128.00 126.00,133.00 126.00,133.00
             120.16,126.88 117.91,124.33 116.00,116.00
             113.11,117.72 112.39,118.69 111.40,122.00
             108.59,131.40 115.79,137.56 117.75,143.00
             120.06,149.43 115.10,150.82 110.00,151.00
             110.00,151.00 107.00,142.00 107.00,142.00
             100.20,148.68 103.00,161.55 108.82,168.18
             110.86,170.51 115.34,173.57 118.00,175.32
             121.71,177.75 125.37,180.11 130.00,179.78
             136.25,179.33 139.58,176.14 144.09,172.42
             148.38,168.88 150.15,168.13 152.90,163.00
             158.57,152.43 157.81,139.39 151.59,129.09
             151.59,129.09 145.83,121.96 145.83,121.96
             139.87,114.27 134.16,104.84 133.76,95.00
             133.76,95.00 133.76,86.00 133.76,86.00 Z" />
</svg>
