<?xml version="1.0" encoding="UTF-8" standalone="no"?>
<!DOCTYPE svg PUBLIC "-//W3C//DTD SVG 20010904//EN"
              "http://www.w3.org/TR/2001/REC-SVG-20010904/DTD/svg10.dtd">

<svg xmlns="http://www.w3.org/2000/svg"
     width="1.88in" height="2.24667in"
     viewBox="0 0 564 674">
  <path id="Selection"
        fill="#6c757d" stroke="#6c757d" stroke-width="1"
        d="M 543.00,228.00
           C 539.10,229.81 538.28,229.94 534.00,230.00
             534.00,230.00 530.00,230.00 530.00,230.00
             522.90,229.91 509.55,228.10 503.00,225.54
             503.00,225.54 493.00,220.63 493.00,220.63
             490.20,219.33 483.95,216.87 482.41,221.23
             481.72,223.18 486.08,233.31 487.00,236.00
             493.02,253.65 495.82,256.81 500.00,277.00
             500.00,277.00 507.15,327.00 507.15,327.00
             509.35,345.29 511.97,363.55 512.00,382.00
             512.00,382.00 513.00,397.00 513.00,397.00
             513.00,397.00 512.00,419.00 512.00,419.00
             512.00,419.00 507.41,457.00 507.41,457.00
             494.86,531.80 452.92,597.31 389.00,638.69
             371.74,649.86 360.78,657.27 341.00,664.31
             314.30,673.81 288.87,674.32 261.00,674.00
             237.85,673.73 199.76,665.56 178.00,657.42
             155.99,649.19 139.40,642.50 120.00,628.57
             108.27,620.15 97.83,610.28 87.83,599.91
             46.76,557.34 27.23,507.40 13.13,451.00
             7.12,426.98 2.64,402.71 0.91,378.00
             0.91,378.00 0.00,366.00 0.00,366.00
             0.00,366.00 0.00,330.00 0.00,330.00
             0.03,310.13 5.27,283.41 10.13,264.00
             18.19,231.75 28.85,200.23 42.69,170.00
             67.46,115.91 104.30,69.40 152.00,33.63
             173.94,17.17 203.85,0.33 232.00,0.00
             273.80,-0.49 304.50,2.98 342.00,23.31
             349.57,27.41 359.34,34.16 366.00,39.62
             366.00,39.62 376.00,48.48 376.00,48.48
             380.12,50.95 382.18,47.91 389.00,47.17
             395.60,46.46 408.40,48.28 413.91,51.99
             419.30,55.62 424.07,66.47 427.90,72.00
             433.04,79.41 440.22,85.40 448.00,89.78
             450.78,91.35 458.08,95.45 455.87,99.58
             453.71,103.62 445.63,102.55 442.00,101.92
             429.98,99.82 414.65,92.06 404.00,86.00
             404.00,86.00 422.85,112.00 422.85,112.00
             425.28,115.36 429.48,120.61 428.64,125.00
             427.96,128.56 424.62,130.82 422.00,133.00
             429.69,131.55 436.12,128.94 442.98,134.39
             449.53,139.59 448.24,143.70 455.02,146.94
             459.05,148.87 470.62,152.01 475.00,151.79
             475.00,151.79 485.00,151.04 485.00,151.04
             494.70,151.47 501.07,158.50 508.00,164.42
             510.38,166.45 514.93,170.81 517.99,171.26
             521.73,171.82 524.42,167.68 526.25,165.00
             530.76,158.38 536.76,147.54 531.35,140.04
             523.35,128.95 507.10,131.38 496.00,126.00
             499.15,119.50 504.50,117.52 511.00,115.33
             525.39,110.49 534.10,109.93 549.00,110.00
             552.84,110.02 556.65,109.90 559.79,112.51
             564.95,116.80 564.01,124.02 564.00,130.00
             563.97,148.56 554.76,175.57 546.22,192.00
             541.90,200.31 537.63,208.52 528.00,211.00
             534.62,216.75 539.24,219.75 543.00,228.00 Z
           M 374.00,56.00
           C 371.09,49.86 365.22,46.14 360.00,42.00
             346.82,31.55 334.40,25.03 319.00,18.58
             299.45,10.38 282.95,7.59 262.00,5.92
             262.00,5.92 251.00,5.00 251.00,5.00
             236.26,4.93 221.21,5.21 207.00,9.75
             168.49,22.04 127.47,58.02 101.28,88.00
             67.62,126.53 44.77,171.70 28.67,220.00
             17.33,254.02 8.38,288.14 5.91,324.00
             5.91,324.00 5.00,336.00 5.00,336.00
             5.00,336.00 5.00,361.00 5.00,361.00
             5.00,361.00 5.91,371.00 5.91,371.00
             8.03,401.93 13.06,432.12 21.58,462.00
             30.87,494.61 42.72,529.47 61.34,558.00
             78.19,583.80 102.32,610.52 128.00,627.65
             145.04,639.01 164.62,647.21 184.00,653.67
             233.31,670.10 292.36,676.15 342.00,657.95
             360.22,651.27 379.27,639.41 395.00,628.14
             454.98,585.16 490.27,526.35 502.41,454.00
             502.41,454.00 507.00,414.00 507.00,414.00
             507.00,414.00 507.00,383.00 507.00,383.00
             507.00,383.00 506.09,371.00 506.09,371.00
             506.09,371.00 502.15,330.00 502.15,330.00
             502.15,330.00 494.42,277.00 494.42,277.00
             491.15,262.16 489.11,257.81 484.05,244.00
             481.95,238.28 480.78,231.89 477.00,227.00
             474.67,232.49 472.70,238.99 473.09,245.00
             474.09,260.33 482.40,271.33 480.83,287.00
             479.81,297.19 475.99,309.07 464.00,309.29
             455.15,309.46 457.67,311.15 450.00,313.98
             446.61,315.23 438.76,317.38 436.23,319.22
             431.14,322.91 433.28,339.49 424.05,339.26
             420.38,339.16 418.66,333.70 417.13,331.00
             413.78,325.09 409.78,318.99 403.00,317.00
             404.34,329.55 414.05,330.71 414.90,343.00
             415.25,347.90 412.54,362.44 405.01,359.04
             400.62,357.05 398.05,349.83 395.00,346.00
             394.92,349.45 394.70,357.03 391.69,359.17
             387.85,361.90 378.60,356.18 375.00,354.13
             367.10,349.62 361.75,347.18 362.52,337.00
             363.01,330.44 368.03,319.03 361.77,315.31
             354.50,310.99 340.52,317.15 334.00,320.87
             334.00,320.87 289.00,346.14 289.00,346.14
             285.63,348.02 273.99,355.32 271.00,355.18
             266.28,354.95 261.51,347.58 259.02,344.00
             259.02,344.00 242.67,320.00 242.67,320.00
             240.48,316.72 237.34,311.13 233.91,309.31
             231.51,308.05 227.73,307.95 225.00,307.58
             225.00,307.58 203.00,304.74 203.00,304.74
             200.41,304.26 194.38,303.11 192.60,301.28
             189.72,298.29 192.57,291.33 193.81,288.00
             193.81,288.00 203.01,265.00 203.01,265.00
             204.41,261.62 206.76,257.72 205.83,254.00
             205.23,251.61 198.81,240.91 197.15,238.00
             197.15,238.00 179.78,206.00 179.78,206.00
             177.94,202.11 172.67,191.01 173.77,187.04
             175.03,182.50 181.98,180.46 186.00,179.30
             193.83,177.04 201.91,175.98 210.00,175.17
             214.84,174.68 219.76,175.15 223.71,171.69
             226.07,169.62 233.10,160.06 235.37,157.00
             235.37,157.00 259.58,125.00 259.58,125.00
             263.14,120.43 270.60,111.00 275.01,107.79
             285.22,100.36 294.19,108.46 307.00,108.96
             318.06,109.39 318.60,104.80 327.00,99.95
             335.89,94.82 341.15,97.12 344.47,94.40
             346.09,93.08 351.97,83.50 353.67,81.00
             358.08,74.49 368.34,60.94 374.00,56.00 Z
           M 450.00,97.00
           C 439.00,90.74 435.19,90.74 426.47,80.00
             416.98,68.32 415.42,52.46 397.00,52.01
             384.03,51.70 376.54,57.62 368.17,67.00
             358.07,78.32 341.80,110.35 335.42,125.00
             331.36,134.33 322.73,150.67 330.42,159.90
             332.86,162.83 336.60,164.62 340.00,166.22
             359.56,175.40 370.93,166.41 388.00,158.32
             392.78,156.06 397.90,154.50 403.00,153.15
             403.00,153.15 445.00,146.00 445.00,146.00
             441.99,133.89 431.75,134.57 422.00,136.88
             422.00,136.88 380.00,145.13 380.00,145.13
             374.40,145.91 367.83,148.10 363.22,143.72
             358.06,138.82 359.26,132.13 361.04,126.00
             364.90,112.70 372.73,101.13 380.71,90.00
             383.70,85.84 389.31,77.33 395.00,77.66
             398.63,77.88 406.54,82.03 410.00,83.75
             418.16,87.83 426.28,92.01 435.00,94.81
             439.75,96.33 445.10,98.88 450.00,97.00 Z
           M 418.00,118.00
           C 416.32,112.24 413.00,107.91 409.66,103.00
             406.68,98.63 397.90,85.80 393.00,84.74
             386.52,83.35 379.05,99.81 379.81,102.79
             380.51,105.55 385.60,107.55 388.00,108.75
             395.28,112.40 410.06,119.59 418.00,118.00 Z
           M 338.00,102.00
           C 324.29,102.77 323.89,113.48 308.00,115.70
             293.13,117.78 289.05,105.32 278.00,113.56
             274.68,116.03 267.56,124.47 264.59,128.00
             264.59,128.00 244.34,154.00 244.34,154.00
             239.08,161.74 233.52,170.73 226.00,176.47
             218.21,182.42 206.50,181.97 197.00,183.15
             192.45,183.72 185.59,184.70 183.35,189.11
             181.51,192.17 182.51,195.89 183.35,199.00
             184.91,203.28 190.75,215.93 193.00,220.00
             222.28,203.17 247.43,169.48 269.00,154.57
             278.27,148.16 281.03,149.59 291.00,148.91
             296.08,148.56 308.43,146.98 313.00,145.39
             323.84,141.63 329.84,124.98 333.99,115.00
             335.96,110.26 337.46,107.17 338.00,102.00 Z
           M 417.00,126.00
           C 417.00,126.00 388.00,114.75 388.00,114.75
             385.24,113.38 378.02,109.11 375.18,109.81
             372.25,110.53 369.99,115.47 368.78,118.00
             365.12,125.67 359.39,140.18 373.00,140.96
             384.32,141.61 408.70,133.55 417.00,126.00 Z
           M 503.00,124.00
           C 513.01,125.80 528.74,126.32 535.35,135.09
             542.34,144.37 536.63,162.05 529.79,170.00
             527.81,172.31 524.04,176.31 521.00,176.94
             518.24,177.51 514.39,175.49 512.00,174.21
             501.93,168.81 498.77,162.25 492.00,158.36
             488.44,156.32 481.08,153.62 477.59,157.01
             474.87,159.64 477.67,165.31 480.34,166.98
             483.11,168.71 485.84,167.16 491.00,170.42
             498.88,175.40 508.86,187.26 514.28,195.00
             517.24,199.22 520.78,207.42 527.00,206.32
             534.32,205.04 541.69,191.37 544.56,185.00
             552.65,167.07 560.23,147.90 560.00,128.00
             559.95,124.25 559.67,118.33 556.57,115.74
             553.71,113.34 545.76,113.96 542.00,114.00
             534.47,114.09 521.56,116.86 514.00,118.65
             509.86,119.63 505.46,120.34 503.00,124.00 Z
           M 469.00,176.00
           C 466.05,172.67 464.80,171.33 463.44,167.00
             462.38,163.59 462.08,158.91 459.57,156.31
             456.97,153.63 450.60,152.93 447.00,153.18
             423.84,154.83 388.75,159.33 370.11,174.04
             370.11,174.04 356.83,191.00 356.83,191.00
             352.14,196.20 346.03,200.58 343.00,207.00
             343.00,207.00 367.00,205.09 367.00,205.09
             377.22,204.39 384.08,204.59 394.00,200.55
             394.00,200.55 433.00,177.00 433.00,177.00
             423.88,191.23 400.94,204.08 385.00,209.33
             385.00,209.33 377.00,211.54 377.00,211.54
             369.98,212.81 363.91,211.22 361.30,220.00
             360.64,222.24 360.32,224.68 360.53,227.00
             361.93,242.43 378.49,251.24 387.56,262.00
             394.12,269.77 397.54,276.21 400.26,286.00
             402.25,293.19 401.47,296.68 404.45,304.00
             407.92,312.53 411.02,314.41 416.56,321.00
             419.76,324.80 421.64,328.56 426.00,331.00
             426.00,326.86 424.85,315.46 428.43,312.97
             431.04,311.25 435.97,312.74 439.00,312.97
             444.78,313.24 449.16,312.51 453.00,308.00
             453.00,308.00 423.00,303.33 423.00,303.33
             420.75,302.26 418.08,300.41 416.30,298.68
             414.92,297.33 413.59,295.63 412.56,294.00
             411.37,292.13 409.86,289.26 409.96,287.00
             410.29,278.93 425.39,272.31 432.00,270.00
             433.52,276.23 432.93,282.63 433.00,289.00
             433.04,292.36 433.16,296.76 435.70,299.30
             440.32,303.93 457.52,304.12 464.00,304.00
             466.36,303.95 468.67,304.02 470.58,302.40
             474.42,299.17 475.10,287.84 474.99,283.00
             474.74,271.98 471.87,266.93 469.15,257.00
             466.55,247.49 464.88,237.79 463.84,228.00
             463.54,225.21 461.89,215.10 462.35,213.11
             464.13,205.46 481.84,210.78 482.77,200.00
             482.77,200.00 481.17,189.00 481.17,189.00
             479.97,178.31 480.09,164.73 469.00,159.00
             469.00,159.00 469.00,176.00 469.00,176.00 Z
           M 324.00,206.00
           C 333.36,198.11 340.27,197.38 349.00,190.48
             351.61,188.42 355.97,184.37 356.77,181.05
             358.14,175.33 350.40,176.86 339.00,171.69
             334.18,169.50 329.00,166.27 325.09,162.70
             322.35,160.21 320.51,157.19 316.99,155.72
             308.99,152.40 297.43,154.99 289.00,155.00
             286.34,155.00 278.67,154.31 277.11,156.60
             274.96,159.75 280.66,172.76 275.61,174.66
             271.87,176.07 270.28,166.74 269.00,164.00
             259.99,168.84 246.01,186.14 242.75,196.00
             239.83,204.82 242.38,205.56 239.00,216.00
             232.23,210.54 232.98,206.79 234.00,199.00
             226.74,202.84 219.55,210.30 216.48,218.00
             214.75,222.35 214.61,230.52 211.68,231.66
             207.96,233.12 205.54,222.35 205.00,220.00
             198.80,222.18 199.58,228.74 201.22,234.00
             201.22,234.00 211.77,255.00 211.77,255.00
             212.08,257.99 208.58,264.99 207.28,268.00
             204.42,274.63 197.17,290.74 196.00,297.00
             196.00,297.00 216.00,300.58 216.00,300.58
             225.37,301.90 231.71,300.72 238.91,308.04
             244.15,313.37 253.93,328.97 258.67,336.00
             260.83,339.21 265.18,346.31 269.01,347.19
             272.33,347.96 279.90,343.79 283.00,342.25
             283.00,342.25 303.00,332.22 303.00,332.22
             303.00,332.22 317.00,325.00 317.00,325.00
             315.48,317.90 311.34,316.58 306.00,312.33
             302.40,309.48 295.76,303.40 292.75,299.96
             281.47,287.06 270.44,262.14 269.00,245.00
             275.65,248.78 277.99,256.05 280.33,263.00
             284.15,274.33 286.01,283.37 293.67,293.00
             298.69,299.31 309.37,306.90 316.00,312.20
             318.44,314.15 322.84,318.30 326.00,318.27
             328.88,318.25 335.93,313.09 339.00,311.49
             344.60,308.58 349.78,307.86 356.00,308.01
             366.43,308.27 369.06,313.10 375.00,313.75
             380.01,314.30 389.55,310.24 395.00,309.00
             390.73,298.11 378.90,291.28 368.00,288.48
             356.39,285.49 342.40,284.65 342.01,269.00
             341.75,258.28 344.34,251.88 347.00,242.00
             347.00,242.00 349.00,242.00 349.00,242.00
             352.25,254.27 350.00,266.49 350.00,279.00
             350.00,279.00 377.00,282.00 377.00,282.00
             384.40,281.90 392.78,278.55 386.57,270.00
             380.45,261.57 364.74,253.31 356.61,237.00
             354.69,233.15 353.58,229.34 353.72,225.00
             353.85,221.20 355.92,216.73 352.57,213.72
             350.27,211.66 345.03,211.10 342.00,210.59
             333.24,209.11 332.39,208.80 324.00,206.00 Z
           M 536.00,226.00
           C 536.00,226.00 521.62,210.00 521.62,210.00
             521.62,210.00 502.57,185.00 502.57,185.00
             499.88,181.86 491.64,172.72 488.02,171.66
             479.67,169.20 484.29,183.81 486.22,186.89
             489.28,191.75 492.65,190.15 497.00,192.30
             503.66,195.59 510.66,202.95 513.00,210.00
             502.42,206.88 501.62,199.53 491.00,196.00
             489.43,199.76 487.54,205.01 489.35,208.98
             491.32,213.30 496.81,215.85 501.00,217.55
             510.35,221.34 525.98,225.78 536.00,226.00 Z
           M 439.00,189.00
           C 447.45,187.50 455.88,196.00 457.00,204.00
             449.09,202.34 442.95,195.76 439.00,189.00 Z
           M 436.00,203.53
           C 440.45,202.80 448.17,202.34 449.53,208.10
             450.30,211.41 448.21,214.50 446.32,217.00
             442.48,222.06 433.43,231.42 427.00,232.59
             420.16,233.83 413.30,225.54 415.86,219.00
             418.70,211.72 428.77,205.67 436.00,203.53 Z
           M 421.00,225.00
           C 428.58,224.55 427.83,223.20 432.37,218.04
             437.69,211.99 440.95,213.75 443.24,211.27
             445.19,209.15 444.32,205.91 440.94,205.84
             435.96,205.74 424.36,214.76 422.17,219.01
             421.11,221.08 421.13,222.77 421.00,225.00 Z
           M 475.00,213.00
           C 475.00,213.00 471.00,213.00 471.00,213.00
             471.00,213.00 471.00,215.00 471.00,215.00
             471.00,215.00 475.00,215.00 475.00,215.00
             475.00,215.00 475.00,213.00 475.00,213.00 Z
           M 450.00,274.26
           C 452.17,274.16 453.77,273.93 456.00,274.26
             462.43,274.58 465.03,277.35 460.51,282.96
             457.63,286.54 451.62,290.71 447.00,291.38
             440.03,292.38 435.09,285.15 438.94,279.13
             441.36,275.35 445.99,275.09 450.00,274.26 Z
           M 428.82,277.00
           C 425.89,276.37 424.96,276.64 422.07,278.13
             418.53,279.96 413.44,284.23 413.48,288.59
             413.54,293.24 421.69,302.75 426.56,299.16
             428.97,297.38 428.30,293.64 428.82,291.00
             428.82,291.00 428.82,283.00 428.82,283.00
             428.82,283.00 428.82,277.00 428.82,277.00 Z
           M 457.00,280.00
           C 455.02,279.44 454.11,279.15 452.00,279.24
             450.65,278.98 448.33,279.05 447.06,279.24
             442.43,280.81 442.62,285.24 445.31,286.36
             447.58,287.30 451.00,285.76 452.89,284.52
             455.11,283.06 455.63,282.15 457.00,280.00 Z
           M 394.00,280.00
           C 391.77,281.40 386.13,284.71 385.32,287.18
             384.03,291.12 392.59,298.82 395.00,302.00
             400.58,297.81 396.01,295.12 397.00,286.00
             397.00,286.00 394.00,280.00 394.00,280.00 Z
           M 428.00,300.00
           C 428.00,300.00 427.00,300.00 427.00,300.00
             427.00,300.00 428.00,301.00 428.00,301.00
             428.00,301.00 428.00,300.00 428.00,300.00 Z
           M 198.00,475.00
           C 198.00,475.00 189.35,513.00 189.35,513.00
             188.55,516.48 187.01,525.82 184.52,527.93
             180.74,531.13 168.13,534.58 163.00,535.87
             139.51,541.77 110.57,541.04 94.53,520.00
             86.53,509.51 86.86,496.43 87.00,484.00
             87.08,477.21 88.76,469.50 90.72,463.00
             93.99,452.16 101.78,438.88 110.04,431.17
             134.95,407.92 178.19,406.67 207.00,423.00
             207.00,423.00 203.00,441.00 203.00,441.00
             188.35,431.20 180.84,425.03 162.00,425.00
             153.85,424.99 148.95,424.71 141.00,427.55
             115.85,436.52 104.51,461.94 103.09,487.00
             102.22,502.42 110.07,518.06 125.00,523.56
             132.78,526.42 139.89,526.09 148.00,526.00
             153.13,525.94 166.95,523.73 170.70,520.44
             173.43,518.04 173.91,513.41 174.60,510.00
             174.60,510.00 179.00,489.00 179.00,489.00
             179.00,489.00 146.00,489.00 146.00,489.00
             146.00,489.00 149.00,475.00 149.00,475.00
             149.00,475.00 198.00,475.00 198.00,475.00 Z
           M 315.00,510.00
           C 314.72,513.40 313.00,524.98 311.10,527.36
             308.62,530.46 296.17,534.38 292.00,535.57
             271.67,541.37 243.39,541.52 228.47,523.96
             221.08,515.27 218.97,505.04 218.18,494.00
             217.93,490.45 218.66,488.42 218.91,485.00
             220.89,457.88 232.20,433.68 257.00,420.31
             273.25,411.55 296.30,409.51 314.00,414.77
             314.00,414.77 332.00,422.00 332.00,422.00
             332.00,422.00 328.00,440.00 328.00,440.00
             320.79,435.81 317.50,431.65 309.00,428.26
             290.61,420.90 268.09,425.04 254.04,439.04
             250.44,442.63 246.76,447.53 244.31,452.00
             232.66,473.22 227.28,513.57 256.00,523.91
             260.31,525.46 263.45,525.94 268.00,526.00
             281.82,526.16 293.02,523.06 305.00,516.13
             305.00,516.13 315.00,510.00 315.00,510.00 Z
           M 434.00,510.00
           C 433.57,513.20 431.67,525.24 430.05,527.36
             427.95,530.11 418.58,532.86 415.00,534.19
             398.90,540.17 375.69,541.47 360.00,533.63
             343.94,525.60 337.20,510.30 337.00,493.00
             336.62,459.37 353.69,426.49 387.00,415.52
             401.10,410.87 420.89,410.91 435.00,415.52
             438.29,416.59 448.10,420.24 449.39,423.39
             450.40,425.85 447.60,436.79 447.00,440.00
             442.12,437.71 440.38,435.18 436.00,432.47
             428.53,427.83 419.80,425.11 411.00,425.00
             411.00,425.00 407.00,425.00 407.00,425.00
             379.48,425.04 361.99,445.74 355.90,471.00
             351.06,491.09 353.04,516.72 376.00,524.25
             381.69,526.12 385.14,526.06 391.00,526.00
             400.99,525.88 413.36,522.06 422.00,517.13
             422.00,517.13 434.00,510.00 434.00,510.00 Z" />
</svg>
