<?xml version="1.0" encoding="UTF-8" standalone="no"?>
<!DOCTYPE svg PUBLIC "-//W3C//DTD SVG 20010904//EN"
              "http://www.w3.org/TR/2001/REC-SVG-20010904/DTD/svg10.dtd">

<svg xmlns="http://www.w3.org/2000/svg"
     width="3.41333in" height="3.41333in"
     viewBox="0 0 1024 1024">
	 <symbol id="icon" viewBox="0 0 1024 1024">
  <path id="Selection"
        fill="fff" stroke="fff" stroke-width="1"
        d="M 385.16,878.00
           C 385.16,878.00 385.16,963.00 385.16,963.00
             385.16,963.00 385.16,972.00 385.16,972.00
             385.74,976.02 384.87,980.35 383.20,984.00
             376.71,998.16 361.85,1000.90 348.00,997.49
             348.00,997.49 333.00,992.06 333.00,992.06
             333.00,992.06 316.00,985.30 316.00,985.30
             316.00,985.30 300.00,978.69 300.00,978.69
             282.66,970.75 260.27,958.96 244.00,949.08
             244.00,949.08 233.00,941.69 233.00,941.69
             204.04,923.03 178.90,902.79 154.00,878.96
             76.82,805.11 26.31,705.69 7.42,601.00
             0.29,561.47 -0.37,524.95 0.00,485.00
             0.00,485.00 0.92,473.00 0.92,473.00
             2.92,438.06 10.36,399.46 20.57,366.00
             26.55,346.37 33.35,326.89 41.43,308.00
             41.43,308.00 47.69,295.00 47.69,295.00
             47.69,295.00 55.48,278.00 55.48,278.00
             115.88,162.81 211.42,77.89 333.00,31.94
             366.21,19.39 400.91,10.78 436.00,5.57
             436.00,5.57 479.00,1.00 479.00,1.00
             479.00,1.00 502.00,0.00 502.00,0.00
             502.00,0.00 523.00,0.00 523.00,0.00
             523.00,0.00 537.00,1.00 537.00,1.00
             587.69,1.59 645.54,14.97 693.00,32.53
             693.00,32.53 728.00,47.69 728.00,47.69
             856.52,106.70 956.44,220.28 999.62,354.96
             1017.58,410.97 1024.66,470.34 1024.00,529.00
             1023.67,557.92 1018.19,594.74 1011.88,623.00
             986.66,736.03 925.03,836.39 835.00,909.54
             791.41,944.96 747.24,970.37 695.00,990.74
             679.52,996.78 658.41,1005.79 645.39,989.96
             643.58,987.77 642.05,984.78 641.15,982.09
             639.86,978.23 640.00,974.02 640.00,970.00
             640.00,970.00 640.55,865.00 640.55,865.00
             640.72,840.25 641.69,815.26 635.63,791.00
             632.45,778.32 627.48,765.96 620.30,755.00
             616.57,749.29 608.94,742.43 607.00,737.00
             607.00,737.00 632.00,734.08 632.00,734.08
             632.00,734.08 680.00,723.58 680.00,723.58
             680.00,723.58 692.00,719.43 692.00,719.43
             709.18,714.17 725.50,706.41 740.96,697.28
             751.83,690.86 762.07,683.15 771.28,674.54
             819.98,629.00 837.81,565.34 839.17,500.42
             839.17,500.42 839.17,496.91 839.17,496.91
             839.17,496.91 839.99,488.00 839.99,488.00
             839.99,488.00 839.04,475.00 839.04,475.00
             837.57,442.38 830.08,414.79 814.53,386.00
             809.76,377.18 804.05,368.90 797.89,361.00
             796.17,358.81 788.72,349.85 788.12,347.96
             787.00,344.49 790.82,335.86 791.85,332.00
             794.38,322.48 796.98,306.78 797.00,297.00
             797.04,270.12 796.39,258.29 788.86,232.00
             787.43,227.02 784.34,214.51 779.89,212.02
             777.72,210.81 774.45,211.00 772.00,211.00
             772.00,211.00 765.00,211.00 765.00,211.00
             735.24,211.35 698.90,230.78 673.00,244.36
             665.73,248.17 658.78,252.89 652.00,257.50
             648.72,259.72 643.99,263.42 640.00,263.62
             636.92,263.77 630.43,261.43 627.00,260.66
             627.00,260.66 601.00,255.09 601.00,255.09
             575.29,250.33 547.10,247.28 521.00,247.00
             495.50,246.74 457.93,249.05 433.00,253.80
             433.00,253.80 401.00,260.37 401.00,260.37
             397.02,261.38 388.74,264.18 385.00,263.42
             381.88,262.78 375.96,258.63 373.00,256.81
             373.00,256.81 348.00,241.87 348.00,241.87
             324.95,228.79 285.64,211.28 259.00,211.00
             259.00,211.00 254.00,211.00 254.00,211.00
             242.18,211.06 242.38,216.86 238.19,230.00
             231.92,249.69 228.79,272.36 229.00,293.00
             229.12,303.62 231.24,319.67 233.89,330.00
             234.85,333.77 238.88,344.92 238.08,348.00
             237.37,350.76 232.17,356.29 230.15,359.00
             223.89,367.44 217.66,375.86 212.43,385.00
             199.36,407.83 191.78,433.28 188.56,459.28
             187.70,466.19 187.01,467.60 187.00,475.00
             187.00,475.00 187.00,497.00 187.00,497.00
             187.00,497.00 187.96,510.00 187.96,510.00
             190.59,570.49 209.06,632.75 255.09,674.73
             272.03,690.18 286.70,698.89 307.00,709.03
             330.18,720.62 359.54,728.00 385.00,732.74
             385.00,732.74 419.00,738.00 419.00,738.00
             419.00,738.00 406.22,754.00 406.22,754.00
             401.20,761.34 396.94,770.67 393.81,779.00
             393.81,779.00 388.80,797.00 388.80,797.00
             388.26,799.80 388.06,804.40 386.26,806.50
             383.98,809.18 375.60,811.29 372.00,812.59
             357.37,817.84 341.49,820.11 326.00,820.00
             299.37,819.80 272.99,807.78 255.17,788.00
             255.17,788.00 230.57,754.00 230.57,754.00
             214.66,733.31 189.44,712.32 162.00,712.00
             155.25,711.92 136.45,711.97 136.56,722.01
             136.61,726.29 141.05,731.03 143.93,733.82
             153.69,743.29 160.16,743.76 170.96,753.92
             185.39,767.49 199.96,791.08 208.64,809.00
             216.64,825.52 218.04,835.50 232.04,850.00
             252.19,870.85 275.82,879.23 304.00,882.17
             304.00,882.17 324.00,884.00 324.00,884.00
             324.00,884.00 358.00,881.87 358.00,881.87
             358.00,881.87 385.16,878.00 385.16,878.00 Z" />
			 </symbol>
</svg>
