<?xml version="1.0" encoding="UTF-8" standalone="no"?>
<!DOCTYPE svg PUBLIC "-//W3C//DTD SVG 20010904//EN"
              "http://www.w3.org/TR/2001/REC-SVG-20010904/DTD/svg10.dtd">

<svg xmlns="http://www.w3.org/2000/svg"
     width="2.38889in" height="3.22222in"
     viewBox="0 0 172 232">
  <path id="Selection"
        fill="#6c757d" stroke="#6c757d" stroke-width="1"
        d="M 107.00,1.00
           C 107.00,1.00 112.00,0.00 112.00,0.00
             120.71,26.87 100.72,43.61 83.00,59.92
             74.53,67.71 63.31,77.21 64.32,90.00
             65.03,98.87 68.22,105.92 73.48,113.00
             76.49,117.06 81.50,121.42 83.00,126.00
             76.06,123.35 70.52,119.14 65.09,114.13
             60.39,109.80 58.46,107.44 55.13,102.00
             45.40,86.09 50.59,71.44 63.01,59.01
             76.27,45.76 101.28,30.71 106.24,12.00
             107.20,8.36 107.00,4.73 107.00,1.00 Z
           M 93.00,132.00
           C 94.25,128.60 96.88,124.28 97.30,121.00
             98.90,108.72 83.32,99.60 84.04,83.00
             84.74,66.92 99.11,56.58 112.00,49.71
             117.67,46.68 123.54,43.67 130.00,43.00
             127.56,46.88 121.81,49.54 118.00,52.38
             110.38,58.05 103.20,64.75 100.10,74.00
             94.48,90.78 118.19,101.26 108.74,119.00
             107.40,121.51 104.87,124.73 102.83,126.71
             99.47,129.95 97.56,131.28 93.00,132.00 Z
           M 143.00,125.00
           C 148.16,117.57 165.92,122.10 170.15,132.00
             177.13,148.35 157.99,161.36 145.00,166.32
             140.26,168.12 138.17,169.45 133.00,169.00
             133.00,169.00 133.00,167.00 133.00,167.00
             141.91,163.02 152.02,155.81 156.60,147.00
             162.92,134.83 156.10,125.64 143.00,125.00 Z
           M 138.00,140.00
           C 115.51,147.49 93.47,148.27 70.00,148.00
             70.00,148.00 49.00,146.25 49.00,146.25
             43.08,145.29 33.34,143.63 28.00,141.37
             25.59,140.35 22.41,138.83 21.82,135.97
             20.92,131.56 26.80,129.42 30.00,128.36
             38.88,125.41 49.79,124.65 59.00,123.00
             59.00,123.00 60.00,126.00 60.00,126.00
             51.86,126.68 45.43,128.85 38.00,132.00
             38.00,132.00 38.00,134.00 38.00,134.00
             38.00,134.00 51.00,137.38 51.00,137.38
             51.00,137.38 81.00,139.82 81.00,139.82
             81.00,139.82 91.00,139.00 91.00,139.00
             91.00,139.00 113.00,137.57 113.00,137.57
             113.00,137.57 131.00,134.90 131.00,134.90
             131.00,134.90 138.00,138.00 138.00,138.00
             138.00,138.00 138.00,140.00 138.00,140.00 Z
           M 128.00,165.00
           C 104.63,172.79 82.33,174.33 58.00,171.00
             51.51,170.11 37.93,168.34 33.32,163.59
             30.22,160.39 31.65,157.45 35.06,155.41
             39.01,153.06 45.45,152.21 50.00,152.00
             50.00,152.00 47.00,155.00 47.00,155.00
             47.00,155.00 47.00,157.00 47.00,157.00
             61.94,163.30 74.23,162.02 90.00,162.00
             95.12,161.99 101.93,161.36 107.00,160.56
             109.73,160.13 115.78,158.49 118.00,158.71
             120.54,158.97 125.32,161.80 128.00,163.00
             128.00,163.00 128.00,165.00 128.00,165.00 Z
           M 117.00,192.00
           C 98.55,198.15 78.24,200.31 59.00,196.33
             54.35,195.37 44.10,192.91 42.40,187.96
             40.01,181.02 52.63,179.20 57.00,179.00
             57.00,179.00 56.00,183.00 56.00,183.00
             73.30,186.48 69.89,186.21 88.00,186.00
             88.00,186.00 106.00,184.24 106.00,184.24
             109.20,184.70 113.78,187.56 117.00,189.00
             117.00,189.00 117.00,192.00 117.00,192.00 Z
           M 154.00,195.00
           C 157.88,204.28 152.21,207.81 144.00,211.08
             134.23,214.96 111.57,218.95 101.00,219.00
             101.00,219.00 83.00,220.00 83.00,220.00
             62.26,220.03 30.47,218.33 11.00,211.79
             8.51,210.96 4.19,209.15 2.31,207.37
             -2.21,203.05 0.53,196.99 5.02,193.97
             11.59,189.55 26.01,186.37 34.00,186.00
             34.00,186.00 34.00,189.00 34.00,189.00
             30.09,189.41 16.13,193.81 18.91,199.66
             19.87,201.67 24.00,203.38 26.00,204.17
             31.14,206.20 43.17,208.30 49.00,209.25
             68.82,212.46 104.27,211.54 124.00,207.60
             134.46,205.51 144.26,204.18 151.00,195.00
             151.00,195.00 154.00,195.00 154.00,195.00 Z
           M 28.00,226.00
           C 31.05,221.77 36.47,224.39 41.00,224.83
             41.00,224.83 60.00,226.00 60.00,226.00
             60.00,226.00 76.00,227.00 76.00,227.00
             76.00,227.00 93.00,226.00 93.00,226.00
             107.70,225.98 131.14,222.06 145.00,217.14
             157.65,212.64 158.76,209.26 166.00,206.00
             164.09,219.68 143.66,225.01 132.00,227.40
             108.24,232.26 96.76,232.04 73.00,232.00
             63.34,231.98 66.45,231.10 60.00,229.96
             60.00,229.96 47.00,229.96 47.00,229.96
             47.00,229.96 28.00,226.00 28.00,226.00 Z" />
</svg>
