<?xml version="1.0" encoding="UTF-8" standalone="no"?>
<!DOCTYPE svg PUBLIC "-//W3C//DTD SVG 20010904//EN"
              "http://www.w3.org/TR/2001/REC-SVG-20010904/DTD/svg10.dtd">

<svg xmlns="http://www.w3.org/2000/svg"
     width="3.15667in" height="3.15667in"
     viewBox="0 0 947 947">
  <path id="Selection"
        fill="#6c757d" stroke="#6c757d" stroke-width="1"
        d="M 415.00,4.00
           C 424.64,0.85 435.06,1.89 445.00,0.85
             447.76,0.39 453.95,-0.84 456.25,0.85
             458.16,2.49 457.82,8.54 458.00,11.00
             458.00,11.00 457.00,12.00 457.00,12.00
             445.94,11.48 427.92,13.04 417.00,15.00
             417.00,15.00 415.00,4.00 415.00,4.00 Z
           M 498.00,0.00
           C 498.00,0.00 540.00,4.00 540.00,4.00
             539.80,6.51 539.38,12.59 537.41,14.26
             535.20,16.07 528.74,14.61 526.00,14.26
             517.62,13.28 504.50,13.15 497.00,11.00
             497.00,11.00 498.00,0.00 498.00,0.00 Z
           M 825.00,5.22
           C 825.00,5.22 840.00,5.22 840.00,5.22
             845.74,5.07 851.39,6.28 857.00,7.40
             863.57,8.71 871.90,10.79 878.00,13.51
             913.93,29.53 941.53,67.01 942.00,107.00
             942.52,151.75 921.89,186.49 882.00,207.36
             866.46,215.49 848.34,218.20 831.00,218.00
             822.24,217.89 810.31,215.28 802.00,212.51
             741.14,192.25 712.02,124.03 738.89,66.00
             749.24,43.62 771.12,22.48 794.00,13.09
             803.90,9.03 814.51,7.14 825.00,5.22 Z
           M 335.00,20.00
           C 335.00,20.00 376.00,10.00 376.00,10.00
             376.00,10.00 378.00,21.00 378.00,21.00
             378.00,21.00 358.96,25.46 358.96,25.46
             358.96,25.46 338.00,31.00 338.00,31.00
             338.00,31.00 335.00,20.00 335.00,20.00 Z
           M 577.00,23.00
           C 577.50,20.76 578.76,14.32 580.58,13.06
             582.77,11.55 588.53,13.49 591.00,14.15
             591.00,14.15 620.00,23.00 620.00,23.00
             620.00,23.00 617.00,34.00 617.00,34.00
             617.00,34.00 597.00,28.20 597.00,28.20
             597.00,28.20 577.00,23.00 577.00,23.00 Z
           M 263.00,62.00
           C 261.79,59.43 258.73,54.11 260.13,51.39
             261.10,49.48 265.09,47.56 267.00,46.60
             267.00,46.60 287.00,37.40 287.00,37.40
             289.24,36.48 293.41,34.23 295.73,35.23
             298.38,36.38 300.09,42.38 301.00,45.00
             301.00,45.00 263.00,62.00 263.00,62.00 Z
           M 654.00,48.00
           C 654.74,45.28 656.27,39.42 659.22,38.41
             661.63,37.59 666.64,40.55 669.00,41.58
             679.95,46.34 685.55,49.04 696.00,55.00
             696.00,55.00 692.00,65.00 692.00,65.00
             692.00,65.00 675.00,57.44 675.00,57.44
             675.00,57.44 654.00,48.00 654.00,48.00 Z
           M 194.00,104.00
           C 192.51,101.86 189.22,97.93 189.82,95.21
             190.33,92.93 195.61,89.57 197.58,88.13
             203.83,83.54 217.01,73.67 224.00,72.00
             224.00,72.00 229.00,81.00 229.00,81.00
             229.00,81.00 210.17,93.81 210.17,93.81
             210.17,93.81 194.00,104.00 194.00,104.00 Z
           M 456.00,111.21
           C 456.00,111.21 483.00,111.21 483.00,111.21
             483.00,111.21 495.00,111.91 495.00,111.91
             526.39,114.06 552.88,118.34 583.00,127.97
             697.01,164.44 784.79,252.49 820.02,367.00
             828.56,394.75 833.11,422.11 835.09,451.00
             835.09,451.00 836.00,461.00 836.00,461.00
             836.00,461.00 836.00,484.00 836.00,484.00
             836.00,484.00 835.09,496.00 835.09,496.00
             832.63,531.91 825.93,567.23 813.09,601.00
             774.58,702.29 694.37,780.56 592.00,816.31
             551.35,830.50 507.93,836.50 465.00,836.00
             465.00,836.00 454.00,835.04 454.00,835.04
             417.27,833.44 380.25,826.46 346.00,812.80
             346.00,812.80 331.00,807.14 331.00,807.14
             288.72,788.50 249.71,762.71 217.00,730.00
             162.46,675.44 124.80,601.62 114.72,525.00
             114.72,525.00 111.91,496.00 111.91,496.00
             111.91,496.00 111.00,486.00 111.00,486.00
             111.00,486.00 111.00,462.00 111.00,462.00
             111.00,462.00 111.91,450.00 111.91,450.00
             115.51,397.36 129.50,347.65 154.39,301.00
             167.34,276.72 183.57,254.25 201.75,233.68
             248.61,180.67 304.54,145.84 372.00,125.20
             389.71,119.79 413.97,115.47 432.42,113.32
             432.42,113.32 456.00,111.21 456.00,111.21 Z
           M 127.00,152.00
           C 130.39,144.78 140.09,136.29 146.09,130.71
             150.44,126.67 152.35,124.21 158.00,122.00
             158.00,122.00 164.00,128.00 164.00,128.00
             162.16,133.26 157.94,136.42 153.96,140.17
             148.87,144.96 140.94,152.50 137.00,158.00
             137.00,158.00 127.00,152.00 127.00,152.00 Z
           M 76.00,216.00
           C 79.16,210.13 92.29,190.56 96.46,186.07
             102.53,179.54 107.74,186.85 107.84,189.04
             107.97,191.65 103.49,196.84 101.87,199.00
             101.87,199.00 86.00,222.00 86.00,222.00
             86.00,222.00 76.00,216.00 76.00,216.00 Z
           M 614.00,217.14
           C 605.52,218.53 598.25,219.57 590.00,222.19
             563.55,230.62 540.70,250.14 528.27,275.00
             499.40,332.73 527.27,403.58 589.00,424.33
             597.53,427.20 610.03,429.89 619.00,430.00
             636.89,430.21 653.69,427.41 670.00,419.68
             682.13,413.93 692.72,405.67 701.96,396.00
             710.43,387.13 717.76,375.44 722.19,364.00
             744.70,305.92 716.17,239.69 655.00,221.59
             647.93,219.50 635.29,217.09 628.00,217.14
             628.00,217.14 614.00,217.14 614.00,217.14 Z
           M 55.00,251.00
           C 55.00,251.00 65.00,255.00 65.00,255.00
             65.00,255.00 57.37,272.00 57.37,272.00
             57.37,272.00 48.00,293.00 48.00,293.00
             48.00,293.00 37.00,289.00 37.00,289.00
             37.00,289.00 55.00,251.00 55.00,251.00 Z
           M 885.00,263.00
           C 885.00,263.00 896.00,258.00 896.00,258.00
             896.00,258.00 908.42,285.00 908.42,285.00
             909.55,287.58 912.72,293.07 911.65,295.73
             910.77,297.91 903.98,302.29 900.53,296.85
             900.53,296.85 885.00,263.00 885.00,263.00 Z
           M 23.00,327.00
           C 23.00,327.00 34.00,330.00 34.00,330.00
             34.00,330.00 26.13,357.00 26.13,357.00
             26.13,357.00 22.42,367.99 22.42,367.99
             22.42,367.99 12.00,367.99 12.00,367.99
             12.72,359.49 19.56,335.09 23.00,327.00 Z
           M 916.00,338.00
           C 918.40,337.17 924.06,334.48 926.27,336.04
             927.76,337.08 928.91,342.14 929.45,344.00
             929.45,344.00 934.73,365.00 934.73,365.00
             935.34,367.31 937.26,372.30 935.89,374.42
             934.31,376.84 927.65,376.94 925.00,377.00
             925.00,377.00 916.00,338.00 916.00,338.00 Z
           M 0.00,449.20
           C 0.00,449.20 1.35,431.58 1.35,431.58
             1.35,431.58 2.72,421.00 2.72,421.00
             3.73,412.89 2.43,405.65 10.95,408.06
             12.09,408.39 13.24,408.76 14.01,409.73
             15.46,411.57 14.99,416.74 14.71,419.00
             14.71,419.00 13.17,429.00 13.17,429.00
             13.17,429.00 12.49,441.09 12.49,441.09
             12.17,444.03 12.51,448.64 8.87,449.20
             8.87,449.20 0.00,449.20 0.00,449.20 Z
           M 943.00,415.00
           C 943.00,415.00 945.17,430.00 945.17,430.00
             945.17,430.00 947.00,457.00 947.00,457.00
             947.00,457.00 935.00,458.00 935.00,458.00
             935.00,445.58 934.18,429.15 932.00,417.00
             932.00,417.00 943.00,415.00 943.00,415.00 Z
           M 259.00,417.00
           C 259.00,417.00 227.00,417.00 227.00,417.00
             227.00,417.00 227.00,655.00 227.00,655.00
             227.00,655.00 376.00,655.00 376.00,655.00
             376.00,655.00 376.00,627.00 376.00,627.00
             376.00,627.00 259.00,627.00 259.00,627.00
             259.00,627.00 259.00,417.00 259.00,417.00 Z
           M 739.00,638.00
           C 725.97,640.33 718.18,636.22 718.00,622.00
             718.00,622.00 718.00,540.00 718.00,540.00
             718.00,522.95 719.96,508.78 707.25,495.17
             691.43,478.24 665.27,478.75 644.00,479.00
             624.77,479.23 600.50,488.48 590.90,506.00
             586.07,514.82 585.00,525.15 585.00,535.00
             585.00,535.00 613.00,535.00 613.00,535.00
             616.21,512.23 629.82,505.69 651.00,504.18
             654.04,503.97 656.99,504.61 660.00,504.95
             676.10,506.76 689.78,512.55 690.00,531.00
             690.04,534.37 690.26,538.89 688.99,542.00
             684.52,553.01 668.13,554.08 658.00,555.58
             632.12,559.42 598.72,559.73 583.48,585.00
             572.69,602.88 575.94,633.23 591.09,647.83
             600.98,657.36 615.45,661.94 629.00,662.00
             629.00,662.00 641.00,662.00 641.00,662.00
             659.77,661.78 678.55,650.32 692.00,638.00
             692.07,641.12 692.11,642.95 693.05,646.00
             697.97,661.81 710.13,662.16 724.00,662.00
             727.35,661.96 735.90,661.26 737.98,658.44
             739.04,657.01 738.96,654.70 739.00,653.00
             739.00,653.00 739.00,638.00 739.00,638.00 Z
           M 540.00,483.00
           C 540.00,483.00 519.00,483.00 519.00,483.00
             517.05,483.04 514.37,482.90 513.02,484.60
             511.77,486.19 512.00,490.01 512.00,492.00
             512.00,492.00 512.00,586.00 512.00,586.00
             511.69,611.88 493.08,638.86 465.00,637.96
             446.74,637.37 432.22,624.75 432.00,606.00
             432.00,606.00 432.00,525.00 432.00,525.00
             432.00,525.00 432.00,496.00 432.00,496.00
             432.00,493.46 432.44,486.45 430.98,484.60
             429.41,482.62 425.30,483.00 423.00,483.00
             423.00,483.00 404.00,483.00 404.00,483.00
             404.00,483.00 404.00,617.00 404.00,617.00
             404.01,622.85 404.24,625.31 405.91,631.00
             411.57,650.19 431.66,661.77 451.00,662.00
             451.00,662.00 465.00,662.00 465.00,662.00
             472.24,661.91 479.31,660.26 486.00,657.55
             500.07,651.85 505.84,644.29 515.00,633.00
             515.00,633.00 515.00,655.00 515.00,655.00
             515.00,655.00 540.00,655.00 540.00,655.00
             540.00,655.00 540.00,483.00 540.00,483.00 Z
           M 3.00,531.00
           C 3.00,531.00 0.78,502.00 0.78,502.00
             0.78,502.00 0.78,490.61 0.78,490.61
             0.78,490.61 12.00,489.00 12.00,489.00
             11.56,495.80 12.45,502.26 13.03,509.00
             13.03,509.00 13.03,517.00 13.03,517.00
             13.45,519.96 14.97,526.84 13.03,529.26
             11.22,531.48 5.65,531.00 3.00,531.00 Z
           M 935.00,498.00
           C 935.00,498.00 947.00,498.00 947.00,498.00
             947.00,498.00 945.74,513.58 945.74,513.58
             945.74,513.58 943.00,540.00 943.00,540.00
             943.00,540.00 932.00,539.00 932.00,539.00
             932.00,539.00 935.00,498.00 935.00,498.00 Z
           M 20.00,612.00
           C 20.00,612.00 12.23,583.00 12.23,583.00
             12.23,583.00 11.11,572.58 11.11,572.58
             11.11,572.58 21.00,569.00 21.00,569.00
             21.00,569.00 28.00,596.00 28.00,596.00
             28.70,598.42 31.14,605.46 30.33,607.59
             29.16,610.71 22.88,611.70 20.00,612.00 Z
           M 689.00,571.00
           C 690.88,575.73 690.07,595.71 690.00,602.00
             689.86,613.09 684.39,619.18 676.00,625.79
             661.10,637.53 632.33,643.30 616.01,631.36
             604.87,623.21 603.24,604.29 612.21,594.02
             617.80,587.61 626.03,584.68 634.00,582.43
             651.92,577.37 671.67,578.59 689.00,571.00 Z
           M 924.00,577.00
           C 924.00,577.00 933.89,580.58 933.89,580.58
             933.89,580.58 932.79,591.00 932.79,591.00
             932.79,591.00 925.00,620.00 925.00,620.00
             925.00,620.00 913.00,617.00 913.00,617.00
             913.00,617.00 924.00,577.00 924.00,577.00 Z
           M 34.00,650.00
           C 34.00,650.00 40.96,647.68 40.96,647.68
             46.07,646.64 47.22,652.28 48.86,656.00
             48.86,656.00 62.00,684.00 62.00,684.00
             62.00,684.00 51.00,689.00 51.00,689.00
             51.00,689.00 34.00,650.00 34.00,650.00 Z
           M 899.00,654.00
           C 899.00,654.00 910.00,658.00 910.00,658.00
             910.00,658.00 892.00,696.00 892.00,696.00
             892.00,696.00 882.00,692.00 882.00,692.00
             882.00,692.00 889.74,674.00 889.74,674.00
             889.74,674.00 899.00,654.00 899.00,654.00 Z
           M 81.00,718.00
           C 81.00,718.00 97.52,742.09 97.52,742.09
             99.16,744.35 103.48,749.16 103.09,751.91
             102.64,755.10 97.57,757.67 95.00,759.00
             95.00,759.00 78.84,735.92 78.84,735.92
             78.84,735.92 72.00,723.00 72.00,723.00
             72.00,723.00 81.00,718.00 81.00,718.00 Z
           M 861.00,725.00
           C 865.78,727.13 868.50,728.19 871.00,733.00
             871.00,733.00 854.14,756.09 854.14,756.09
             852.41,758.55 849.28,763.69 845.99,763.84
             843.55,763.95 837.24,760.58 840.05,755.00
             840.05,755.00 861.00,725.00 861.00,725.00 Z
           M 127.97,784.25
           C 132.25,783.94 133.47,786.05 136.35,789.00
             136.35,789.00 150.00,803.00 150.00,803.00
             151.48,804.47 156.01,808.59 156.68,810.28
             157.82,813.17 154.41,817.68 151.71,818.53
             148.14,819.65 143.41,813.88 141.08,811.61
             141.08,811.61 127.03,797.00 127.03,797.00
             125.38,795.21 122.77,792.66 123.03,790.00
             123.30,787.13 125.79,785.58 127.97,784.25 Z
           M 783.00,816.00
           C 783.00,816.00 803.00,797.00 803.00,797.00
             804.96,795.05 809.16,790.20 812.00,790.20
             815.24,790.20 818.32,794.66 820.00,797.00
             820.00,797.00 790.00,826.00 790.00,826.00
             790.00,826.00 783.00,816.00 783.00,816.00 Z
           M 182.00,848.00
           C 182.48,846.48 182.75,845.44 183.55,844.00
             189.45,833.43 194.89,842.34 209.00,852.23
             211.50,853.99 219.57,858.33 220.19,861.26
             220.75,863.88 217.32,868.64 216.00,871.00
             216.00,871.00 182.00,848.00 182.00,848.00 Z
           M 718.00,866.00
           C 718.00,866.00 736.91,853.06 736.91,853.06
             736.91,853.06 753.00,843.00 753.00,843.00
             754.52,845.18 757.77,849.04 757.18,851.83
             756.46,855.16 747.92,860.17 745.00,862.05
             745.00,862.05 731.00,871.49 731.00,871.49
             729.12,872.68 726.51,874.52 724.18,873.71
             721.64,872.82 719.27,868.26 718.00,866.00 Z
           M 251.00,892.00
           C 252.00,889.64 253.88,884.28 256.27,883.23
             259.14,881.97 264.44,885.36 267.00,886.70
             267.00,886.70 293.00,899.00 293.00,899.00
             292.21,901.64 291.17,906.50 288.61,907.89
             285.73,909.45 280.69,906.52 278.00,905.30
             264.86,899.39 264.31,899.99 251.00,892.00 Z
           M 646.00,902.00
           C 646.00,902.00 684.00,885.00 684.00,885.00
             684.00,885.00 689.00,896.00 689.00,896.00
             689.00,896.00 662.00,908.60 662.00,908.60
             662.00,908.60 651.30,911.60 651.30,911.60
             651.30,911.60 646.00,902.00 646.00,902.00 Z
           M 330.00,913.00
           C 330.00,913.00 370.00,924.00 370.00,924.00
             370.00,924.00 368.00,935.00 368.00,935.00
             361.14,934.66 344.83,930.21 338.00,927.86
             335.52,927.01 329.41,925.69 328.11,923.49
             326.74,921.16 329.29,915.63 330.00,913.00 Z
           M 571.00,937.00
           C 571.00,937.00 570.36,926.57 570.36,926.57
             570.36,926.57 585.00,922.12 585.00,922.12
             585.00,922.12 601.00,917.63 601.00,917.63
             601.00,917.63 608.44,917.11 608.44,917.11
             608.44,917.11 612.00,927.00 612.00,927.00
             612.00,927.00 571.00,937.00 571.00,937.00 Z
           M 409.00,931.00
           C 409.00,931.00 450.00,936.00 450.00,936.00
             450.00,936.00 449.00,947.00 449.00,947.00
             449.00,947.00 407.00,943.00 407.00,943.00
             407.00,943.00 409.00,931.00 409.00,931.00 Z
           M 489.11,946.00
           C 489.11,946.00 489.11,940.57 489.11,940.57
             489.39,933.43 494.21,935.12 500.00,934.99
             500.00,934.99 530.00,932.00 530.00,932.00
             530.00,932.00 532.00,944.00 532.00,944.00
             519.99,944.11 499.87,949.09 489.11,946.00 Z" />
</svg>
