<?xml version="1.0" encoding="UTF-8" standalone="no"?>
<!DOCTYPE svg PUBLIC "-//W3C//DTD SVG 20010904//EN"
              "http://www.w3.org/TR/2001/REC-SVG-20010904/DTD/svg10.dtd">

<svg xmlns="http://www.w3.org/2000/svg"
     width="156.614mm" height="131.57mm"
     viewBox="0 0 444 373">
  <path id="Selection"
        fill="#fff" stroke="#fff" stroke-width="1"
        d="M 107.00,83.00
           C 116.58,95.76 131.01,100.74 146.00,103.46
             150.30,104.24 152.32,105.19 157.00,104.91
             157.00,104.91 168.00,103.05 168.00,103.05
             174.73,102.18 181.31,99.40 187.00,95.70
             188.71,94.59 191.80,92.49 192.54,90.54
             193.67,87.54 189.88,82.72 188.55,79.96
             185.00,72.60 184.01,68.09 184.00,60.00
             184.00,60.00 184.00,49.00 184.00,49.00
             184.04,30.83 197.70,14.83 213.00,6.63
             216.31,4.85 221.38,2.29 225.00,1.46
             225.00,1.46 233.00,0.83 233.00,0.83
             235.83,0.57 236.96,0.10 240.00,0.32
             254.48,1.41 267.65,5.11 278.39,15.68
             286.69,23.84 293.86,39.32 294.00,51.00
             294.14,63.00 294.02,75.07 286.00,85.00
             286.00,85.00 290.00,87.00 290.00,87.00
             290.00,87.00 296.58,64.00 296.58,64.00
             296.58,64.00 298.00,43.87 298.00,43.87
             303.80,45.41 316.39,45.71 322.00,43.87
             326.24,42.25 332.86,36.82 337.57,40.02
             342.23,43.19 338.58,55.90 336.56,60.00
             333.54,66.11 331.36,67.96 326.28,72.27
             311.55,84.74 307.11,81.58 292.00,88.00
             317.09,96.03 325.29,117.86 325.00,142.00
             324.96,145.41 324.81,146.68 324.00,150.00
             338.17,150.00 344.78,149.32 359.00,152.89
             390.26,160.74 417.65,182.85 431.52,212.00
             458.82,269.39 432.57,338.96 373.00,362.60
             363.84,366.24 349.83,369.88 340.00,370.00
             317.52,370.26 301.46,368.99 281.00,358.22
             275.55,355.35 268.83,351.12 264.00,347.33
             255.67,340.81 255.12,337.02 244.00,337.00
             244.00,337.00 200.00,337.00 200.00,337.00
             189.13,337.02 188.27,340.92 180.00,347.34
             175.15,351.10 168.46,355.38 163.00,358.22
             142.86,368.68 126.10,370.25 104.00,370.00
             96.13,369.90 85.50,367.48 78.00,365.00
             41.74,353.02 14.23,324.26 5.13,287.00
             3.65,280.92 2.08,273.22 2.00,267.00
             1.80,249.60 2.79,235.45 9.45,219.00
             24.82,181.05 64.10,150.07 106.00,150.00
             106.00,150.00 112.00,150.00 112.00,150.00
             103.07,127.68 101.89,117.66 102.00,94.00
             102.03,88.85 101.44,84.90 107.00,83.00 Z
           M 272.99,38.82
           C 267.75,41.22 266.64,44.41 267.06,50.00
             267.32,53.46 269.61,59.06 274.03,58.18
             282.41,56.51 283.78,39.55 272.99,38.82 Z
           M 128.00,244.00
           C 128.00,244.00 128.00,213.00 128.00,213.00
             127.99,209.38 128.36,205.22 125.57,202.43
             122.33,199.19 107.59,199.38 103.00,200.23
             100.80,200.63 99.20,201.37 97.85,203.23
             96.06,205.70 96.04,209.08 96.00,212.00
             96.00,212.00 96.00,244.00 96.00,244.00
             96.00,244.00 65.00,244.00 65.00,244.00
             61.43,244.01 57.21,243.62 54.51,246.43
             50.44,250.66 50.71,270.50 55.39,274.26
             57.78,276.18 61.10,275.98 64.00,276.00
             64.00,276.00 96.00,276.00 96.00,276.00
             96.00,276.00 96.00,307.00 96.00,307.00
             96.02,310.30 95.92,313.94 98.01,316.72
             101.33,321.16 110.87,320.03 116.00,320.00
             119.40,319.98 122.96,320.18 125.57,317.57
             128.36,314.78 127.99,310.62 128.00,307.00
             128.00,307.00 128.00,276.00 128.00,276.00
             128.00,276.00 161.00,276.00 161.00,276.00
             174.61,275.81 172.05,266.36 172.00,256.00
             171.98,252.60 172.18,249.04 169.57,246.43
             166.78,243.64 162.62,244.01 159.00,244.00
             159.00,244.00 128.00,244.00 128.00,244.00 Z
           M 361.00,200.30
           C 353.05,201.86 345.68,205.77 341.53,213.00
             331.68,230.15 342.62,253.07 363.00,253.96
             371.89,254.35 380.49,251.03 386.07,243.91
             397.17,229.75 391.38,207.53 374.00,201.75
             369.19,200.15 366.01,199.82 361.00,200.30 Z
           M 317.00,266.30
           C 310.73,267.53 304.66,270.24 300.33,275.09
             284.69,292.58 298.68,323.58 325.00,319.70
             351.46,315.80 356.20,279.38 332.00,268.35
             326.92,266.04 322.45,265.76 317.00,266.30 Z" />
</svg>
