<?xml version="1.0" encoding="UTF-8" standalone="no"?>
<!DOCTYPE svg PUBLIC "-//W3C//DTD SVG 20010904//EN"
              "http://www.w3.org/TR/2001/REC-SVG-20010904/DTD/svg10.dtd">

<svg xmlns="http://www.w3.org/2000/svg"
     width="7.26389in" height="7.26389in"
     viewBox="0 0 523 523">
  <path id="Selection"
        fill="#6c757d" stroke="#6c757d" stroke-width="1"
        d="M 214.00,350.00
           C 214.00,350.00 200.00,347.43 200.00,347.43
             187.04,343.54 175.40,334.09 169.27,322.00
             153.32,290.54 176.50,252.20 212.00,253.01
             218.01,253.15 226.47,255.50 232.00,257.87
             238.11,260.50 242.21,263.44 247.00,268.04
             250.59,271.48 254.55,275.64 256.97,280.00
             271.09,305.50 258.54,334.60 239.96,354.00
             219.71,375.15 196.54,383.09 168.00,385.09
             168.00,385.09 155.00,385.99 155.00,385.99
             119.75,385.14 86.03,369.15 63.32,342.00
             42.09,316.62 35.85,287.15 36.00,255.00
             36.05,244.79 38.76,229.88 41.58,220.00
             47.59,198.95 56.00,185.02 69.60,168.00
             110.63,116.64 172.25,94.29 236.00,89.91
             236.00,89.91 261.00,88.00 261.00,88.00
             261.00,88.00 288.00,89.00 288.00,89.00
             288.00,89.00 325.00,93.58 325.00,93.58
             348.86,97.88 371.37,103.31 394.00,112.20
             394.00,112.20 422.00,124.78 422.00,124.78
             427.04,127.40 430.97,128.03 432.00,134.00
             423.34,133.80 417.15,130.05 409.00,127.33
             398.65,123.88 387.72,121.47 377.00,119.46
             360.64,116.39 338.69,114.97 322.00,115.00
             322.00,115.00 302.00,116.00 302.00,116.00
             302.00,116.00 292.00,116.91 292.00,116.91
             232.36,121.27 167.31,157.14 128.58,202.00
             120.88,210.91 114.11,217.92 107.69,228.00
             96.84,245.06 91.25,264.90 90.21,285.00
             90.21,285.00 90.92,293.00 90.92,293.00
             92.20,309.11 96.21,325.45 105.36,339.00
             117.47,356.94 143.81,373.90 166.00,374.00
             187.98,374.10 199.54,365.54 214.00,350.00 Z
           M 308.00,173.00
           C 327.46,173.00 346.15,182.61 354.48,201.00
             368.16,231.17 347.90,268.20 314.00,268.99
             292.88,269.47 269.75,255.17 262.55,235.00
             260.20,228.44 259.92,223.84 260.00,217.00
             260.13,206.53 264.15,195.04 269.29,186.00
             289.89,149.76 329.22,135.54 369.00,136.00
             379.36,136.12 395.15,139.07 405.00,142.35
             454.32,158.78 486.40,205.68 487.00,257.00
             487.27,280.34 483.49,304.03 472.74,325.00
             467.81,334.62 461.47,343.47 454.88,352.00
             421.57,395.11 371.73,419.06 319.00,428.58
             319.00,428.58 296.00,432.00 296.00,432.00
             296.00,432.00 287.00,432.00 287.00,432.00
             287.00,432.00 265.00,434.00 265.00,434.00
             265.00,434.00 236.00,433.00 236.00,433.00
             236.00,433.00 226.00,432.09 226.00,432.09
             206.53,430.67 193.82,428.10 175.00,423.65
             160.87,420.31 141.05,415.14 128.00,409.23
             128.00,409.23 101.00,397.25 101.00,397.25
             95.85,394.67 92.05,394.14 91.00,388.00
             99.76,388.20 103.92,391.24 112.00,394.00
             122.41,397.54 129.26,399.24 140.00,401.40
             156.21,404.66 181.52,407.19 198.00,407.00
             198.00,407.00 208.00,406.04 208.00,406.04
             208.00,406.04 220.00,406.04 220.00,406.04
             220.00,406.04 229.00,405.17 229.00,405.17
             240.57,404.06 250.66,402.71 262.00,399.87
             310.05,387.86 353.72,362.80 388.04,327.00
             413.92,299.99 431.91,274.76 432.69,236.04
             432.69,236.04 430.92,219.00 430.92,219.00
             426.29,191.51 414.60,172.09 390.00,158.00
             378.39,151.35 367.45,147.85 354.00,148.00
             332.77,148.24 321.62,158.18 308.00,173.00 Z" />
</svg>
