<?xml version="1.0" encoding="UTF-8" standalone="no"?>
<!DOCTYPE svg PUBLIC "-//W3C//DTD SVG 20010904//EN"
              "http://www.w3.org/TR/2001/REC-SVG-20010904/DTD/svg10.dtd">

<svg xmlns="http://www.w3.org/2000/svg"
     width="3.36in" height="1.5in"
     viewBox="0 0 1008 450">
  <path id="Selection"
        fill="#6c757d" stroke="#6c757d" stroke-width="1"
        d="M 720.00,342.00
           C 717.32,346.92 712.26,350.23 708.00,353.75
             698.84,361.32 689.07,368.14 679.00,374.42
             641.85,397.60 600.46,416.41 558.00,427.48
             558.00,427.48 537.00,433.34 537.00,433.34
             537.00,433.34 477.00,444.72 477.00,444.72
             438.77,449.87 400.54,450.45 362.00,450.00
             362.00,450.00 352.00,449.09 352.00,449.09
             352.00,449.09 308.00,445.15 308.00,445.15
             243.18,437.40 183.00,420.38 125.00,390.10
             63.54,358.02 1.88,301.24 0.75,227.00
             0.75,227.00 0.75,217.00 0.75,217.00
             5.26,142.39 68.35,89.61 130.00,57.36
             143.02,50.55 156.27,44.46 170.00,39.19
             170.00,39.19 211.00,24.72 211.00,24.72
             252.29,12.28 297.05,4.85 340.00,1.91
             340.00,1.91 371.00,0.00 371.00,0.00
             371.00,0.00 434.00,1.09 434.00,1.09
             484.28,4.52 534.19,14.06 582.00,30.00
             617.90,41.97 650.28,56.75 682.00,77.50
             693.85,85.25 712.94,98.61 722.00,109.00
             722.00,109.00 699.00,97.08 699.00,97.08
             678.87,87.71 658.38,79.03 637.00,72.91
             601.82,62.83 566.37,56.32 530.00,52.83
             530.00,52.83 517.00,50.99 517.00,50.99
             517.00,50.99 507.17,50.99 507.17,50.99
             507.17,50.99 450.00,49.00 450.00,49.00
             450.00,49.00 428.00,50.00 428.00,50.00
             428.00,50.00 414.91,50.91 414.91,50.91
             377.29,52.60 330.13,60.82 294.00,71.45
             250.82,84.15 203.40,103.45 169.00,133.00
             180.35,129.22 191.96,126.29 204.00,126.01
             208.90,125.90 210.45,126.38 215.00,126.83
             215.00,126.83 227.01,128.03 227.01,128.03
             247.12,131.76 264.98,143.59 277.08,160.00
             310.98,205.98 300.04,291.99 243.00,315.08
             231.33,319.80 217.58,322.14 205.00,322.00
             190.06,321.83 178.59,318.85 165.00,313.00
             177.32,325.05 192.12,334.31 207.00,342.85
             240.56,362.10 277.47,374.98 315.00,383.88
             346.08,391.26 373.18,395.61 405.00,398.23
             405.00,398.23 426.00,400.00 426.00,400.00
             426.00,400.00 451.00,401.00 451.00,401.00
             451.00,401.00 471.00,401.00 471.00,401.00
             471.00,401.00 493.00,400.00 493.00,400.00
             510.98,399.87 529.19,397.57 547.00,395.29
             580.21,391.04 613.04,384.87 645.00,374.66
             667.70,367.40 685.77,359.81 707.00,349.04
             707.00,349.04 720.00,342.00 720.00,342.00 Z
           M 819.00,298.00
           C 808.93,308.07 803.76,313.66 790.00,318.56
             772.16,324.92 742.85,321.93 726.00,313.63
             714.48,307.95 702.29,298.05 694.69,287.71
             673.22,258.49 669.59,211.89 684.31,179.00
             690.54,165.08 700.43,150.92 713.00,142.04
             750.34,115.67 809.56,120.37 835.96,160.00
             842.51,169.84 844.92,180.59 847.00,192.00
             847.00,192.00 815.00,192.00 815.00,192.00
             812.96,192.00 809.37,192.26 807.70,191.01
             806.05,189.77 804.97,185.95 804.13,184.00
             802.12,179.35 800.51,176.69 796.96,173.01
             786.78,162.50 777.92,160.84 764.00,161.00
             743.49,161.24 728.92,175.60 722.22,194.00
             712.69,220.15 715.18,258.82 738.00,277.67
             753.57,290.53 783.92,290.61 798.96,276.82
             807.37,269.10 810.52,258.98 812.00,248.00
             812.00,248.00 771.00,248.00 771.00,248.00
             771.00,248.00 771.00,216.00 771.00,216.00
             771.00,216.00 830.00,216.00 830.00,216.00
             833.58,216.00 846.97,215.07 848.98,217.60
             850.23,219.19 850.00,223.01 850.00,225.00
             850.00,225.00 850.00,296.00 850.00,296.00
             850.00,296.00 850.00,311.00 850.00,311.00
             849.96,312.95 850.10,315.63 848.40,316.98
             846.81,318.23 842.99,318.00 841.00,318.00
             841.00,318.00 823.00,318.00 823.00,318.00
             823.00,318.00 819.00,298.00 819.00,298.00 Z
           M 875.00,318.00
           C 875.00,318.00 875.00,174.00 875.00,174.00
             875.00,174.00 875.00,143.00 875.00,143.00
             875.00,143.00 876.02,131.60 876.02,131.60
             876.02,131.60 884.00,130.00 884.00,130.00
             884.00,130.00 916.00,130.00 916.00,130.00
             916.00,130.00 916.00,283.00 916.00,283.00
             916.00,283.00 1008.00,283.00 1008.00,283.00
             1008.00,283.00 1008.00,309.00 1008.00,309.00
             1008.00,309.00 1006.98,316.40 1006.98,316.40
             1006.98,316.40 999.00,318.00 999.00,318.00
             999.00,318.00 875.00,318.00 875.00,318.00 Z
           M 169.00,133.00
           C 169.00,133.00 168.00,133.00 168.00,133.00
             168.00,133.00 169.00,134.00 169.00,134.00
             169.00,134.00 169.00,133.00 169.00,133.00 Z
           M 167.00,134.00
           C 167.00,134.00 166.00,134.00 166.00,134.00
             166.00,134.00 167.00,135.00 167.00,135.00
             167.00,135.00 167.00,134.00 167.00,134.00 Z
           M 199.00,147.14
           C 182.48,149.81 170.41,154.72 159.32,168.00
             126.92,206.82 136.86,300.06 204.00,300.99
             204.00,300.99 208.00,300.99 208.00,300.99
             213.46,300.91 220.83,300.16 226.00,298.48
             260.98,287.11 271.05,253.12 271.00,220.00
             270.96,193.81 258.57,164.65 234.00,152.75
             225.37,148.57 213.51,146.89 204.00,147.14
             204.00,147.14 199.00,147.14 199.00,147.14 Z
           M 334.00,214.00
           C 346.41,189.92 387.33,191.43 405.91,207.02
             439.59,235.27 434.05,319.31 375.00,320.00
             363.62,320.13 350.09,317.61 341.04,310.32
             338.03,307.90 335.61,304.83 333.00,302.00
             333.00,302.00 333.00,363.00 333.00,363.00
             333.00,363.00 314.00,363.00 314.00,363.00
             314.00,363.00 314.00,198.00 314.00,198.00
             317.59,198.00 331.52,196.88 333.11,200.01
             333.11,200.01 334.00,214.00 334.00,214.00 Z
           M 544.00,279.00
           C 542.56,296.20 531.29,311.05 515.00,316.91
             505.86,320.20 498.47,320.11 489.00,320.00
             483.12,319.93 474.35,318.50 469.00,316.10
             445.14,305.39 436.28,282.76 436.00,258.00
             435.83,242.72 440.68,224.56 451.28,213.17
             472.17,190.74 509.84,188.34 530.82,212.00
             543.22,226.01 547.07,245.84 546.00,264.00
             546.00,264.00 457.00,264.00 457.00,264.00
             457.08,272.30 458.84,281.14 463.79,288.00
             473.24,301.11 493.15,306.03 508.00,300.02
             513.13,297.94 517.83,293.74 520.65,289.00
             521.94,286.82 523.95,281.19 525.56,280.02
             527.83,278.37 540.54,279.00 544.00,279.00 Z
           M 579.00,217.00
           C 583.92,205.47 595.85,198.04 608.00,196.15
             608.00,196.15 622.00,196.15 622.00,196.15
             634.98,196.16 646.56,201.45 653.12,213.00
             656.26,218.52 658.72,229.92 658.61,236.28
             658.61,236.28 658.00,245.00 658.00,245.00
             658.00,245.00 658.00,318.00 658.00,318.00
             658.00,318.00 639.00,318.00 639.00,318.00
             639.00,318.00 639.00,246.00 639.00,246.00
             638.99,236.93 638.41,226.98 631.82,220.09
             622.91,210.78 605.29,211.75 595.00,218.19
             590.82,220.80 587.02,224.78 584.48,229.00
             580.25,236.01 579.04,245.93 579.00,254.00
             579.00,254.00 579.00,318.00 579.00,318.00
             579.00,318.00 559.00,318.00 559.00,318.00
             559.00,318.00 559.00,227.00 559.00,227.00
             559.00,227.00 559.00,205.00 559.00,205.00
             559.04,203.05 558.90,200.37 560.60,199.02
             562.35,197.63 568.64,197.96 571.00,198.00
             582.51,198.22 575.59,204.99 579.00,217.00 Z
           M 363.72,213.60
           C 353.32,214.97 344.86,219.97 339.13,229.00
             329.27,244.55 330.44,276.81 342.47,290.96
             349.34,299.05 358.71,302.07 369.00,302.82
             387.28,304.14 400.28,289.80 403.78,273.01
             408.73,249.23 402.82,220.20 376.00,213.60
             371.58,212.69 368.15,212.96 363.72,213.60 Z
           M 525.00,246.00
           C 523.95,224.49 506.10,210.24 485.00,213.75
             477.93,214.93 472.62,217.31 467.46,222.46
             461.33,228.59 457.77,237.45 457.00,246.00
             457.00,246.00 525.00,246.00 525.00,246.00 Z
           M 163.00,311.00
           C 163.00,311.00 162.00,311.00 162.00,311.00
             162.00,311.00 163.00,312.00 163.00,312.00
             163.00,312.00 163.00,311.00 163.00,311.00 Z
           M 164.00,312.00
           C 164.00,312.00 163.00,312.00 163.00,312.00
             163.00,312.00 164.00,313.00 164.00,313.00
             164.00,313.00 164.00,312.00 164.00,312.00 Z" />
</svg>
