<?xml version="1.0" encoding="UTF-8" standalone="no"?>
<!DOCTYPE svg PUBLIC "-//W3C//DTD SVG 20010904//EN"
              "http://www.w3.org/TR/2001/REC-SVG-20010904/DTD/svg10.dtd">

<svg xmlns="http://www.w3.org/2000/svg"
     width="16.6667in" height="16.6667in"
     viewBox="0 0 1200 1200">
  <path id="Selection"
        fill="#6c757d" stroke="#6c757d" stroke-width="1"
        d="M 272.00,150.21
           C 272.00,150.21 297.00,150.21 297.00,150.21
             297.00,150.21 311.00,151.00 311.00,151.00
             311.00,151.00 452.00,151.00 452.00,151.00
             452.00,151.00 469.00,152.00 469.00,152.00
             469.00,152.00 988.00,152.00 988.00,152.00
             988.00,152.00 1145.00,152.00 1145.00,152.00
             1161.92,152.03 1186.21,155.89 1195.10,172.00
             1198.63,178.41 1200.15,189.69 1199.99,197.00
             1199.54,216.71 1190.23,252.56 1186.00,273.00
             1186.00,273.00 1152.42,426.00 1152.42,426.00
             1152.42,426.00 1055.58,864.00 1055.58,864.00
             1055.58,864.00 1042.42,922.00 1042.42,922.00
             1042.42,922.00 1029.72,974.00 1029.72,974.00
             1023.18,995.81 1014.25,1017.52 995.00,1031.21
             978.66,1042.83 947.87,1047.97 928.00,1048.00
             928.00,1048.00 873.00,1048.00 873.00,1048.00
             873.00,1048.00 856.00,1049.00 856.00,1049.00
             856.00,1049.00 488.00,1049.00 488.00,1049.00
             488.00,1049.00 277.00,1049.00 277.00,1049.00
             277.00,1049.00 160.00,1049.00 160.00,1049.00
             160.00,1049.00 145.00,1048.00 145.00,1048.00
             145.00,1048.00 62.00,1048.00 62.00,1048.00
             46.43,1047.98 20.25,1044.62 9.18,1032.91
             -0.11,1023.08 -0.14,1010.60 0.00,998.00
             0.13,987.62 3.31,973.27 5.58,963.00
             5.58,963.00 17.12,912.00 17.12,912.00
             17.12,912.00 45.77,787.00 45.77,787.00
             45.77,787.00 54.89,746.00 54.89,746.00
             54.89,746.00 101.89,542.00 101.89,542.00
             101.89,542.00 147.79,341.00 147.79,341.00
             147.79,341.00 165.58,262.00 165.58,262.00
             173.47,226.05 180.73,187.84 214.00,166.08
             227.35,157.35 245.21,152.68 261.00,151.17
             261.00,151.17 272.00,150.21 272.00,150.21 Z
           M 625.00,599.00
           C 618.50,602.43 610.14,609.52 604.00,614.13
             604.00,614.13 568.00,641.12 568.00,641.12
             568.00,641.12 467.00,715.88 467.00,715.88
             467.00,715.88 361.00,794.12 361.00,794.12
             361.00,794.12 316.00,827.09 316.00,827.09
             316.00,827.09 277.00,855.66 277.00,855.66
             263.79,866.01 250.08,879.05 250.00,897.00
             249.99,900.00 249.89,903.05 250.52,906.00
             254.81,926.23 276.21,949.74 298.00,950.00
             322.42,950.28 337.32,937.66 356.00,923.88
             356.00,923.88 413.00,881.73 413.00,881.73
             413.00,881.73 565.00,769.48 565.00,769.48
             565.00,769.48 677.00,687.53 677.00,687.53
             677.00,687.53 723.00,653.73 723.00,653.73
             723.00,653.73 751.00,633.08 751.00,633.08
             765.32,621.13 775.22,611.54 775.00,592.00
             774.82,576.64 764.29,564.13 754.51,553.28
             754.51,553.28 710.66,505.28 710.66,505.28
             710.66,505.28 667.17,458.00 667.17,458.00
             667.17,458.00 587.83,370.00 587.83,370.00
             587.83,370.00 539.28,316.00 539.28,316.00
             539.28,316.00 511.09,285.00 511.09,285.00
             496.78,269.56 484.82,254.99 463.00,250.51
             459.57,249.81 453.67,249.96 450.00,250.00
             426.80,250.28 396.80,273.57 389.09,295.00
             386.71,301.60 386.92,306.17 387.00,313.00
             387.14,324.16 393.22,334.99 399.34,344.00
             410.13,359.87 432.33,380.73 445.58,396.00
             445.58,396.00 496.83,453.00 496.83,453.00
             496.83,453.00 571.15,537.00 571.15,537.00
             571.15,537.00 609.42,580.00 609.42,580.00
             614.70,586.09 621.18,591.87 625.00,599.00 Z
           M 536.00,825.07
           C 489.86,834.02 488.23,907.25 528.00,922.53
             533.37,924.60 538.33,924.99 544.00,925.00
             544.00,925.00 782.00,925.00 782.00,925.00
             787.25,924.99 789.89,924.93 795.00,923.25
             813.35,917.24 824.78,897.81 825.00,879.00
             825.00,879.00 825.00,870.00 825.00,870.00
             824.71,846.06 806.62,825.04 782.00,825.07
             782.00,825.07 620.00,825.07 620.00,825.07
             620.00,825.07 566.00,825.07 566.00,825.07
             566.00,825.07 536.00,825.07 536.00,825.07 Z" />
</svg>
