<?xml version="1.0" encoding="UTF-8" standalone="no"?>
<!DOCTYPE svg PUBLIC "-//W3C//DTD SVG 20010904//EN"
              "http://www.w3.org/TR/2001/REC-SVG-20010904/DTD/svg10.dtd">

<svg xmlns="http://www.w3.org/2000/svg"
     width="5.61111in" height="5.61111in"
     viewBox="0 0 404 404">
  <path id="Selection"
        fill="#6c757d" stroke="#6c757d" stroke-width="1"
        d="M 106.00,95.00
           C 106.00,95.00 106.00,54.00 106.00,54.00
             106.03,36.23 115.44,26.06 130.00,17.06
             152.20,3.36 182.38,-0.30 208.00,0.00
             229.29,0.25 257.85,6.65 276.00,17.91
             289.17,26.09 297.98,35.98 298.00,52.00
             298.00,52.00 298.00,97.00 298.00,97.00
             298.00,97.00 298.99,114.00 298.99,114.00
             298.99,114.00 298.00,128.00 298.00,128.00
             298.00,128.00 298.00,141.00 298.00,141.00
             297.92,156.90 291.12,173.21 279.00,183.70
             275.07,187.10 270.69,189.99 266.00,192.22
             259.40,195.36 254.19,195.99 247.00,196.00
             247.00,196.00 196.00,196.00 196.00,196.00
             196.00,196.00 180.00,197.00 180.00,197.00
             180.00,197.00 153.00,197.00 153.00,197.00
             135.36,197.03 123.18,203.53 111.01,216.00
             106.38,220.75 101.80,226.68 99.55,233.00
             97.66,238.30 97.01,245.38 97.00,251.00
             97.00,251.00 97.00,298.00 97.00,298.00
             97.00,298.00 54.00,298.00 54.00,298.00
             34.16,297.97 23.15,285.78 14.75,269.00
             7.41,254.31 1.20,232.46 1.00,216.00
             1.00,216.00 0.18,202.00 0.18,202.00
             0.18,202.00 1.00,188.00 1.00,188.00
             1.06,182.80 2.34,175.25 3.25,170.00
             6.97,148.55 18.68,115.49 41.00,107.55
             45.40,105.98 48.45,106.01 53.00,106.00
             53.00,106.00 201.00,106.00 201.00,106.00
             201.00,106.00 201.00,95.00 201.00,95.00
             201.00,95.00 106.00,95.00 106.00,95.00 Z
           M 147.00,34.34
           C 143.11,35.05 140.27,35.85 137.18,38.53
             124.53,49.52 132.18,72.42 152.00,69.81
             163.35,68.32 170.14,55.25 165.44,45.00
             162.09,37.68 154.78,34.14 147.00,34.34 Z
           M 309.00,106.00
           C 309.00,106.00 352.00,106.00 352.00,106.00
             369.28,106.03 379.69,116.72 387.84,131.00
             401.54,154.99 404.31,182.93 404.00,210.00
             404.00,210.00 402.13,228.00 402.13,228.00
             398.32,255.39 384.48,297.95 351.00,298.00
             351.00,298.00 203.00,298.00 203.00,298.00
             203.00,298.00 203.00,310.00 203.00,310.00
             203.00,310.00 298.00,310.00 298.00,310.00
             298.00,310.00 298.00,352.00 298.00,352.00
             297.97,368.12 288.20,378.35 275.00,386.39
             256.49,397.66 235.28,401.63 214.00,403.09
             214.00,403.09 200.00,404.00 200.00,404.00
             200.00,404.00 190.00,403.09 190.00,403.09
             168.50,401.61 152.38,398.10 133.00,388.24
             117.13,380.17 106.03,368.54 106.00,350.00
             106.00,350.00 106.00,253.00 106.00,253.00
             106.01,248.44 106.27,243.39 107.62,239.00
             113.73,219.19 135.21,207.09 155.00,207.00
             155.00,207.00 213.00,207.00 213.00,207.00
             213.00,207.00 230.00,208.00 230.00,208.00
             237.59,208.01 255.08,207.00 262.00,204.96
             284.79,198.23 307.96,171.39 308.00,147.00
             308.00,147.00 308.00,126.00 308.00,126.00
             308.00,126.00 309.00,106.00 309.00,106.00 Z
           M 254.00,333.34
           C 249.31,334.19 245.68,335.50 242.39,339.18
             232.67,350.03 239.33,370.63 258.00,368.90
             270.56,367.73 277.56,353.94 271.59,343.00
             267.88,336.22 261.52,333.15 254.00,333.34 Z" />
</svg>
