<?xml version="1.0" encoding="UTF-8" standalone="no"?>
<!DOCTYPE svg PUBLIC "-//W3C//DTD SVG 20010904//EN"
              "http://www.w3.org/TR/2001/REC-SVG-20010904/DTD/svg10.dtd">

<svg xmlns="http://www.w3.org/2000/svg"
     width="2.46in" height="1.23667in"
     viewBox="0 0 738 371">
  <path id="Selection"
        fill="#6c757d" stroke="#6c757d" stroke-width="1"
        d="M 597.00,0.00
           C 603.33,1.19 609.26,4.88 615.00,7.75
             615.00,7.75 649.00,27.19 649.00,27.19
             660.05,34.04 670.32,42.19 680.00,50.84
             716.14,83.10 738.08,117.56 738.00,167.00
             737.98,182.73 732.59,202.87 725.74,217.00
             715.17,238.84 702.45,254.27 685.00,270.96
             653.66,300.93 610.29,322.35 570.00,337.42
             531.17,351.95 490.13,361.24 449.00,366.15
             449.00,366.15 407.00,370.00 407.00,370.00
             407.00,370.00 391.00,371.00 391.00,371.00
             391.00,371.00 340.00,371.00 340.00,371.00
             340.00,371.00 322.00,370.00 322.00,370.00
             322.00,370.00 312.00,369.09 312.00,369.09
             285.66,367.25 258.80,363.12 233.00,357.42
             196.59,349.38 170.40,341.63 136.00,326.85
             127.35,323.13 102.42,311.38 96.00,306.00
             96.00,306.00 117.00,314.69 117.00,314.69
             117.00,314.69 147.00,326.95 147.00,326.95
             147.00,326.95 167.00,333.53 167.00,333.53
             167.00,333.53 173.83,334.62 173.83,334.62
             173.83,334.62 181.01,337.69 181.01,337.69
             181.01,337.69 209.00,344.79 209.00,344.79
             209.00,344.79 219.71,346.90 219.71,346.90
             219.71,346.90 225.84,346.90 225.84,346.90
             225.84,346.90 232.04,349.30 232.04,349.30
             232.04,349.30 245.00,351.57 245.00,351.57
             245.00,351.57 271.96,354.99 271.96,354.99
             271.96,354.99 282.00,354.32 282.00,354.32
             282.00,354.32 290.00,356.78 290.00,356.78
             290.00,356.78 314.00,358.00 314.00,358.00
             314.00,358.00 331.00,358.98 331.00,358.98
             331.00,358.98 342.00,356.28 342.00,356.28
             342.00,356.28 351.00,358.84 351.00,358.84
             351.00,358.84 365.00,358.00 365.00,358.00
             365.00,358.00 392.00,356.71 392.00,356.71
             392.00,356.71 404.04,353.24 404.04,353.24
             404.04,353.24 412.00,354.38 412.00,354.38
             412.00,354.38 430.00,352.42 430.00,352.42
             430.00,352.42 456.96,347.78 456.96,347.78
             456.96,347.78 466.01,342.64 466.01,342.64
             466.01,342.64 480.00,342.64 480.00,342.64
             480.00,342.64 522.00,332.00 522.00,332.00
             522.50,327.68 523.57,324.48 528.02,322.74
             534.12,320.34 537.83,324.70 543.00,323.83
             543.00,323.83 573.00,311.69 573.00,311.69
             575.42,310.58 579.50,308.81 580.99,306.61
             582.59,304.26 582.05,299.84 587.04,296.93
             592.04,294.51 598.54,297.30 601.28,296.93
             603.36,296.21 608.90,292.66 611.00,291.40
             611.00,291.40 629.00,279.86 629.00,279.86
             632.73,277.19 635.89,275.93 636.14,270.99
             636.26,268.69 635.86,267.49 636.65,265.02
             639.91,254.78 651.17,259.54 656.00,257.52
             659.86,255.90 664.95,249.58 668.09,246.39
             670.96,243.48 680.47,233.50 681.13,230.00
             681.84,226.28 678.07,224.27 678.09,218.00
             678.12,207.48 688.91,202.87 698.00,205.00
             698.00,205.00 706.96,182.00 706.96,182.00
             706.96,182.00 710.00,170.00 710.00,170.00
             704.61,168.16 700.15,164.28 701.41,158.00
             703.02,149.95 710.35,151.16 711.67,145.89
             712.21,143.76 711.41,140.25 711.16,138.00
             710.65,133.20 709.49,121.01 706.86,117.31
             704.67,114.21 700.32,114.81 698.61,109.98
             697.17,105.88 700.21,102.72 700.48,100.57
             700.71,98.65 699.56,96.67 698.75,95.00
             696.52,90.39 691.82,81.76 688.48,78.14
             685.16,74.55 682.69,75.26 681.03,72.69
             679.25,69.96 681.36,68.39 678.21,63.91
             678.21,63.91 666.83,51.31 666.83,51.31
             666.83,51.31 660.54,47.42 660.54,47.42
             658.86,45.84 658.52,43.68 654.94,40.17
             652.83,38.09 645.51,32.15 643.00,30.48
             643.00,30.48 637.45,27.15 637.45,27.15
             637.45,27.15 631.95,22.34 631.95,22.34
             631.95,22.34 597.00,0.00 597.00,0.00 Z
           M 0.00,173.00
           C 8.74,173.23 8.94,175.78 16.00,180.19
             22.25,184.09 25.47,185.63 32.00,188.75
             47.43,196.11 64.02,199.61 81.00,200.82
             89.42,201.42 106.32,197.84 112.96,192.47
             119.47,187.21 122.69,178.39 117.49,171.00
             109.28,159.33 93.74,158.05 81.00,155.12
             55.15,149.17 20.63,143.10 7.27,117.00
             3.26,109.16 1.73,102.68 0.93,94.00
             0.18,85.92 0.27,80.05 2.01,72.00
             8.12,43.79 38.54,26.53 65.00,21.46
             78.50,18.87 88.50,18.98 102.00,19.00
             115.96,19.02 139.59,22.85 153.00,26.98
             156.62,28.09 166.95,30.76 169.01,33.65
             170.25,35.39 170.00,38.90 170.00,41.00
             170.00,41.00 170.00,83.00 170.00,83.00
             167.79,82.93 166.12,82.98 164.00,82.15
             164.00,82.15 152.00,74.45 152.00,74.45
             152.00,74.45 141.00,68.78 141.00,68.78
             125.36,61.40 113.95,59.59 97.00,58.51
             87.96,57.94 72.88,61.07 66.04,67.21
             59.44,73.14 56.55,81.41 62.42,88.98
             69.50,98.13 87.18,100.39 98.00,102.88
             123.58,108.77 159.03,115.57 172.68,141.00
             176.49,148.11 177.77,156.09 178.72,164.00
             179.55,170.99 178.70,177.16 177.39,184.00
             176.26,189.86 174.06,195.80 171.13,201.00
             156.17,227.52 120.07,239.95 91.00,240.00
             91.00,240.00 68.00,240.00 68.00,240.00
             52.35,239.98 31.95,235.44 17.00,230.66
             13.39,229.50 2.96,226.52 1.02,223.59
             -0.22,221.70 0.00,218.22 0.00,216.00
             0.00,216.00 0.00,173.00 0.00,173.00 Z
           M 188.00,23.00
           C 188.00,23.00 256.00,23.00 256.00,23.00
             284.87,23.00 311.80,23.22 338.00,37.12
             370.87,54.56 387.47,86.89 389.04,123.00
             389.04,123.00 389.68,132.00 389.68,132.00
             389.00,141.09 388.34,150.11 386.11,159.00
             380.29,182.17 364.02,205.17 344.00,218.14
             321.80,232.51 302.45,234.34 277.00,236.09
             277.00,236.09 265.00,237.00 265.00,237.00
             265.00,237.00 188.00,237.00 188.00,237.00
             188.00,237.00 188.00,23.00 188.00,23.00 Z
           M 403.00,23.00
           C 403.00,23.00 461.00,23.00 461.00,23.00
             461.00,23.00 461.00,195.00 461.00,195.00
             461.00,195.00 554.00,195.00 554.00,195.00
             554.00,195.00 554.00,237.00 554.00,237.00
             554.00,237.00 403.00,237.00 403.00,237.00
             403.00,237.00 403.00,23.00 403.00,23.00 Z
           M 245.00,196.00
           C 264.01,196.00 287.59,197.72 304.00,186.90
             326.81,171.85 332.91,145.66 330.16,120.00
             328.37,103.21 323.60,88.07 309.96,77.01
             299.28,68.35 286.71,64.03 273.00,64.00
             273.00,64.00 260.00,63.04 260.00,63.04
             260.00,63.04 245.00,63.04 245.00,63.04
             245.00,63.04 245.00,196.00 245.00,196.00 Z
           M 208.00,251.87
           C 210.22,249.53 211.81,250.04 215.00,250.00
             215.00,250.00 215.00,255.00 215.00,255.00
             215.00,255.00 208.00,254.00 208.00,254.00
             208.00,254.00 208.00,258.00 208.00,258.00
             202.23,256.48 201.88,255.10 196.00,257.00
             202.13,260.13 205.06,259.23 209.00,265.00
             209.00,265.00 209.00,256.00 209.00,256.00
             209.00,256.00 215.00,256.00 215.00,256.00
             215.00,256.00 215.00,274.00 215.00,274.00
             215.00,274.00 209.00,274.00 209.00,274.00
             209.00,274.00 208.00,268.00 208.00,268.00
             207.39,269.85 207.38,270.66 205.69,272.07
             202.62,274.41 193.55,274.93 190.60,272.07
             188.89,270.54 189.08,268.13 189.00,266.00
             194.94,268.12 195.96,270.13 202.00,267.00
             199.40,266.00 193.23,264.31 191.60,262.49
             189.19,259.80 189.33,253.71 194.06,251.87
             197.61,250.25 204.32,251.11 208.00,251.87 Z
           M 263.00,250.00
           C 263.00,250.00 269.00,250.00 269.00,250.00
             269.00,250.00 270.00,264.00 270.00,264.00
             271.41,255.38 280.19,254.21 284.72,257.74
             287.43,259.85 287.70,262.86 288.00,266.00
             288.00,266.00 276.00,266.00 276.00,266.00
             280.06,270.14 281.76,269.06 287.00,268.00
             286.89,269.43 286.98,271.06 286.01,272.26
             283.74,275.06 275.77,274.15 273.14,272.26
             270.86,270.62 270.10,268.44 269.00,266.00
             269.00,266.00 269.00,274.00 269.00,274.00
             269.00,274.00 263.00,274.00 263.00,274.00
             263.00,274.00 262.00,268.00 262.00,268.00
             259.83,273.98 256.84,274.60 251.00,273.00
             251.00,273.00 251.00,280.00 251.00,280.00
             251.00,280.00 245.00,280.00 245.00,280.00
             245.00,280.00 245.00,256.00 245.00,256.00
             252.83,256.10 258.19,254.19 263.00,261.00
             263.00,261.00 263.00,250.00 263.00,250.00 Z
           M 317.00,250.00
           C 317.00,250.00 324.00,250.00 324.00,250.00
             324.00,250.00 324.00,255.00 324.00,255.00
             324.00,255.00 317.00,255.00 317.00,255.00
             317.00,255.00 317.00,250.00 317.00,250.00 Z
           M 436.00,250.00
           C 436.00,250.00 443.00,250.00 443.00,250.00
             443.00,250.00 443.00,273.93 443.00,273.93
             443.00,273.93 431.02,273.93 431.02,273.93
             431.02,273.93 425.72,273.16 425.72,273.16
             417.52,273.34 414.53,276.63 408.00,269.00
             408.00,269.00 408.00,274.00 408.00,274.00
             408.00,274.00 401.00,274.00 401.00,274.00
             401.00,274.00 401.00,261.00 401.00,261.00
             395.65,264.02 397.00,268.50 397.00,274.00
             397.00,274.00 391.00,274.00 391.00,274.00
             391.00,268.50 392.35,264.02 387.00,261.00
             387.00,261.00 387.00,274.00 387.00,274.00
             379.77,274.00 374.33,275.55 369.00,270.00
             366.83,276.19 358.95,274.64 355.00,270.89
             350.70,274.53 341.55,275.82 337.74,270.89
             335.84,268.26 336.03,264.98 336.00,262.00
             336.00,262.00 332.00,262.00 332.00,262.00
             332.00,272.00 332.87,273.72 325.00,274.00
             325.00,274.00 325.00,256.00 325.00,256.00
             329.28,256.09 335.45,255.67 339.00,258.00
             344.74,254.29 349.13,255.92 354.00,260.00
             358.90,255.17 362.59,256.00 369.00,256.00
             369.00,256.00 369.00,252.00 369.00,252.00
             369.00,252.00 376.00,252.00 376.00,252.00
             376.00,252.00 376.00,256.08 376.00,256.08
             376.00,256.08 391.02,256.08 391.02,256.08
             391.02,256.08 396.42,256.87 396.42,256.87
             401.59,256.83 403.71,254.17 407.00,260.00
             414.65,255.41 418.60,253.80 426.00,260.00
             429.56,255.84 430.75,256.07 436.00,256.00
             436.00,256.00 436.00,250.00 436.00,250.00 Z
           M 444.00,250.00
           C 444.00,250.00 451.00,250.00 451.00,250.00
             450.12,255.03 448.79,254.83 444.00,255.00
             444.00,255.00 444.00,250.00 444.00,250.00 Z
           M 295.00,251.00
           C 303.59,251.00 311.57,248.87 316.00,258.00
             316.00,258.00 324.00,256.00 324.00,256.00
             324.00,256.00 324.00,274.00 324.00,274.00
             324.00,274.00 317.00,274.00 317.00,274.00
             317.00,274.00 316.00,266.00 316.00,266.00
             313.60,272.86 308.78,273.94 302.00,273.98
             300.07,273.99 297.34,274.07 296.02,272.40
             294.77,270.81 295.00,266.99 295.00,265.00
             295.00,265.00 295.00,251.00 295.00,251.00 Z
           M 477.00,251.00
           C 477.00,251.00 483.00,251.00 483.00,251.00
             483.00,251.00 483.00,269.00 483.00,269.00
             493.26,268.87 489.58,266.39 495.13,263.31
             495.13,263.31 502.00,261.00 502.00,261.00
             502.00,261.00 493.00,261.00 493.00,261.00
             493.00,261.00 493.00,256.00 493.00,256.00
             499.19,256.00 502.19,255.31 508.00,258.00
             513.23,252.20 516.29,261.33 518.00,265.00
             518.92,261.00 521.75,252.18 527.00,258.00
             533.44,255.28 537.86,254.65 543.00,260.00
             544.64,255.31 547.23,255.32 551.00,258.00
             551.00,258.00 556.00,256.00 556.00,256.00
             556.00,256.00 556.00,262.00 556.00,262.00
             556.00,262.00 550.00,262.00 550.00,262.00
             550.00,262.00 550.00,274.00 550.00,274.00
             544.45,273.90 531.37,275.04 527.65,271.35
             525.88,269.60 524.91,266.32 524.00,264.00
             523.19,267.53 520.54,277.02 517.59,278.98
             515.95,280.06 513.87,279.93 512.00,280.00
             513.54,269.78 513.59,270.88 509.00,261.00
             509.00,261.00 509.00,274.00 509.00,274.00
             509.00,274.00 477.00,274.00 477.00,274.00
             477.00,274.00 477.00,251.00 477.00,251.00 Z
           M 302.00,269.00
           C 312.81,267.74 312.68,256.86 302.00,256.00
             302.00,256.00 302.00,269.00 302.00,269.00 Z
           M 216.00,256.08
           C 216.00,256.08 227.02,256.08 227.02,256.08
             227.02,256.08 232.42,256.87 232.42,256.87
             235.13,256.85 239.31,254.75 242.15,258.31
             244.65,261.46 244.00,269.93 244.00,274.00
             244.00,274.00 237.00,274.00 237.00,274.00
             237.00,274.00 237.00,261.00 237.00,261.00
             231.65,264.02 233.00,268.50 233.00,274.00
             233.00,274.00 227.00,274.00 227.00,274.00
             227.00,268.50 228.35,264.02 223.00,261.00
             223.00,261.00 223.00,274.00 223.00,274.00
             223.00,274.00 216.00,274.00 216.00,274.00
             216.00,274.00 216.00,256.08 216.00,256.08 Z
           M 444.00,256.00
           C 444.00,256.00 450.00,256.00 450.00,256.00
             450.00,256.00 451.00,268.00 451.00,268.00
             452.85,262.15 455.70,262.77 461.00,261.00
             461.00,261.00 452.00,261.00 452.00,261.00
             452.00,261.00 452.00,256.00 452.00,256.00
             455.65,256.00 462.78,255.36 465.57,257.74
             468.99,260.64 468.00,269.71 468.00,274.00
             468.00,274.00 453.27,272.98 453.27,272.98
             453.27,272.98 450.00,269.00 450.00,269.00
             450.00,269.00 450.00,274.00 450.00,274.00
             450.00,274.00 444.00,274.00 444.00,274.00
             444.00,274.00 444.00,256.00 444.00,256.00 Z
           M 509.00,259.00
           C 509.00,259.00 508.00,259.00 508.00,259.00
             508.00,259.00 509.00,260.00 509.00,260.00
             509.00,260.00 509.00,259.00 509.00,259.00 Z
           M 527.00,259.00
           C 527.00,259.00 526.00,259.00 526.00,259.00
             526.00,259.00 527.00,260.00 527.00,260.00
             527.00,260.00 527.00,259.00 527.00,259.00 Z
           M 281.00,263.00
           C 278.99,260.06 278.01,260.06 276.00,263.00
             276.00,263.00 281.00,263.00 281.00,263.00 Z
           M 348.00,263.00
           C 345.50,259.81 344.75,260.31 342.00,263.00
             342.00,263.00 348.00,263.00 348.00,263.00 Z
           M 363.10,260.93
           C 356.87,264.07 360.23,269.67 364.95,268.97
             369.69,268.28 371.12,261.24 363.10,260.93 Z
           M 419.00,260.00
           C 419.00,260.00 414.00,262.00 414.00,262.00
             414.00,262.00 419.00,262.00 419.00,262.00
             419.00,262.00 419.00,260.00 419.00,260.00 Z
           M 537.00,261.00
           C 537.00,261.00 532.00,262.00 532.00,262.00
             532.00,262.00 537.00,261.00 537.00,261.00 Z
           M 251.00,269.00
           C 257.56,267.85 257.56,262.15 251.00,261.00
             251.00,261.00 251.00,269.00 251.00,269.00 Z
           M 380.00,261.00
           C 380.00,261.00 376.00,261.00 376.00,261.00
             376.00,261.00 377.00,270.00 377.00,270.00
             380.75,267.19 379.98,265.46 380.00,261.00 Z
           M 436.00,261.00
           C 429.74,262.08 429.35,267.83 436.00,269.00
             436.00,269.00 436.00,261.00 436.00,261.00 Z
           M 526.00,261.00
           C 526.00,261.00 525.00,261.00 525.00,261.00
             525.00,261.00 526.00,262.00 526.00,262.00
             526.00,262.00 526.00,261.00 526.00,261.00 Z
           M 353.00,266.00
           C 353.00,266.00 342.00,266.00 342.00,266.00
             345.20,270.51 349.85,270.66 353.00,266.00 Z
           M 425.00,266.00
           C 425.00,266.00 414.00,266.00 414.00,266.00
             416.95,270.68 421.97,270.48 425.00,266.00 Z
           M 461.00,266.00
           C 461.00,266.00 457.00,267.00 457.00,267.00
             457.00,267.00 457.00,269.00 457.00,269.00
             457.00,269.00 458.00,270.00 458.00,270.00
             458.00,270.00 460.00,270.00 460.00,270.00
             460.00,270.00 461.00,266.00 461.00,266.00 Z
           M 502.00,266.00
           C 502.00,266.00 498.00,267.00 498.00,267.00
             498.00,267.00 498.00,269.00 498.00,269.00
             498.00,269.00 499.00,270.00 499.00,270.00
             499.00,270.00 501.00,270.00 501.00,270.00
             501.00,270.00 502.00,266.00 502.00,266.00 Z
           M 543.00,266.00
           C 543.00,266.00 532.00,266.00 532.00,266.00
             534.91,270.78 539.83,270.13 543.00,266.00 Z" />
</svg>
