<?xml version="1.0" encoding="UTF-8" standalone="no"?>
<!DOCTYPE svg PUBLIC "-//W3C//DTD SVG 20010904//EN"
              "http://www.w3.org/TR/2001/REC-SVG-20010904/DTD/svg10.dtd">

<svg xmlns="http://www.w3.org/2000/svg"
     width="34.3959mm" height="34.3959mm"
     viewBox="0 0 1024 1024">
  <path id="Selection"
        fill="#6c757d" stroke="#6c757d" stroke-width="1"
        d="M 504.00,63.22
           C 504.00,63.22 528.00,63.22 528.00,63.22
             543.95,63.19 564.81,70.66 579.00,77.75
             605.38,90.94 629.07,108.47 653.00,125.58
             653.00,125.58 780.00,217.85 780.00,217.85
             780.00,217.85 872.00,285.35 872.00,285.35
             909.48,314.35 956.63,354.96 970.09,402.00
             974.96,419.01 974.20,429.95 974.00,447.00
             973.72,470.40 961.62,507.11 954.72,530.00
             954.72,530.00 916.66,648.00 916.66,648.00
             916.66,648.00 905.72,681.00 905.72,681.00
             905.72,681.00 880.34,759.00 880.34,759.00
             869.49,792.97 858.24,827.02 842.25,859.00
             827.14,889.21 809.88,917.77 780.00,935.55
             757.96,948.66 732.22,953.33 707.00,955.09
             707.00,955.09 697.00,956.00 697.00,956.00
             697.00,956.00 671.00,957.00 671.00,957.00
             671.00,957.00 485.00,957.00 485.00,957.00
             485.00,957.00 385.00,957.00 385.00,957.00
             385.00,957.00 370.00,956.00 370.00,956.00
             370.00,956.00 362.00,956.00 362.00,956.00
             362.00,956.00 350.00,955.09 350.00,955.09
             350.00,955.09 325.00,953.16 325.00,953.16
             285.20,948.91 244.08,940.12 214.17,911.58
             181.54,880.43 165.93,821.19 152.00,779.00
             152.00,779.00 87.66,581.00 87.66,581.00
             77.60,549.53 67.49,518.47 61.00,486.00
             58.97,475.86 55.12,452.74 55.00,443.00
             54.83,428.30 54.54,413.48 57.45,399.00
             61.92,376.78 73.40,355.36 89.04,339.00
             116.00,310.80 146.81,290.07 178.00,267.12
             178.00,267.12 312.00,169.85 312.00,169.85
             359.10,135.50 420.75,87.63 476.00,69.74
             485.14,66.79 494.54,64.98 504.00,63.22 Z
           M 532.00,491.00
           C 532.00,491.00 537.12,471.00 537.12,471.00
             537.12,471.00 549.12,425.00 549.12,425.00
             549.12,425.00 590.37,266.00 590.37,266.00
             590.37,266.00 606.63,204.00 606.63,204.00
             607.60,200.11 612.71,182.59 612.10,180.09
             611.33,176.90 605.62,173.34 603.00,171.37
             593.94,164.57 584.85,157.78 575.00,152.15
             532.11,127.63 488.41,131.45 447.00,156.81
             447.00,156.81 426.00,171.00 426.00,171.00
             423.81,172.56 418.23,176.30 417.03,178.46
             415.23,181.71 419.84,195.86 420.87,200.00
             420.87,200.00 436.58,260.00 436.58,260.00
             436.58,260.00 448.88,308.00 448.88,308.00
             448.88,308.00 471.12,393.00 471.12,393.00
             471.12,393.00 482.71,438.00 482.71,438.00
             482.71,438.00 492.13,474.00 492.13,474.00
             492.91,477.12 495.00,487.48 496.85,489.40
             498.74,491.37 502.47,490.99 505.00,491.00
             505.00,491.00 532.00,491.00 532.00,491.00 Z
           M 356.00,223.00
           C 349.65,226.11 336.42,236.39 330.00,241.12
             330.00,241.12 283.00,275.28 283.00,275.28
             283.00,275.28 215.00,324.58 215.00,324.58
             197.67,336.97 170.84,354.81 157.17,370.00
             140.78,388.21 128.04,416.22 128.00,441.00
             128.00,441.00 128.00,454.00 128.00,454.00
             128.23,473.08 135.97,496.90 142.00,515.00
             142.00,515.00 165.66,587.00 165.66,587.00
             165.66,587.00 212.66,732.00 212.66,732.00
             212.66,732.00 224.98,770.00 224.98,770.00
             237.10,809.00 248.31,845.43 287.00,866.69
             297.64,872.54 306.21,875.99 318.00,878.87
             329.53,881.68 349.17,883.98 361.00,884.00
             361.00,884.00 675.00,884.00 675.00,884.00
             685.24,883.98 703.22,881.87 713.00,878.96
             721.89,876.33 732.04,872.28 740.00,867.55
             778.06,844.90 789.75,812.63 802.67,773.00
             802.67,773.00 818.02,725.00 818.02,725.00
             818.02,725.00 843.33,648.00 843.33,648.00
             843.33,648.00 865.00,581.00 865.00,581.00
             865.00,581.00 887.67,511.00 887.67,511.00
             892.99,495.02 900.80,473.79 901.00,457.00
             901.24,436.39 900.38,421.28 891.69,402.00
             878.00,371.65 852.36,352.24 826.00,333.58
             826.00,333.58 767.00,290.85 767.00,290.85
             767.00,290.85 702.00,243.58 702.00,243.58
             702.00,243.58 673.00,223.00 673.00,223.00
             673.00,223.00 649.00,314.00 649.00,314.00
             649.00,314.00 643.29,336.00 643.29,336.00
             642.43,339.04 640.77,342.76 642.69,345.70
             644.04,347.77 649.74,351.52 652.00,353.14
             652.00,353.14 673.00,368.37 673.00,368.37
             673.00,368.37 747.00,422.12 747.00,422.12
             747.00,422.12 773.00,441.08 773.00,441.08
             775.88,443.45 781.23,447.25 781.94,451.00
             782.50,453.96 777.93,467.26 776.86,471.00
             776.86,471.00 760.33,522.00 760.33,522.00
             760.33,522.00 731.66,611.00 731.66,611.00
             731.66,611.00 703.66,697.00 703.66,697.00
             703.66,697.00 686.66,749.00 686.66,749.00
             685.23,753.11 681.79,763.67 677.79,765.40
             676.13,766.12 672.86,766.00 671.00,766.00
             671.00,766.00 465.00,766.00 465.00,766.00
             433.17,766.00 375.99,767.35 347.00,765.00
             347.00,765.00 340.42,745.00 340.42,745.00
             340.42,745.00 320.33,683.00 320.33,683.00
             320.33,683.00 274.00,540.00 274.00,540.00
             274.00,540.00 254.92,481.00 254.92,481.00
             252.94,475.23 245.97,456.18 246.60,451.01
             247.09,447.06 252.07,443.94 255.00,441.60
             255.00,441.60 280.00,423.12 280.00,423.12
             280.00,423.12 355.00,368.71 355.00,368.71
             355.00,368.71 377.00,352.85 377.00,352.85
             378.93,351.44 384.95,347.27 385.97,345.49
             387.39,342.98 385.58,338.65 384.88,336.00
             384.88,336.00 378.88,313.00 378.88,313.00
             378.88,313.00 363.13,252.00 363.13,252.00
             363.13,252.00 356.00,223.00 356.00,223.00 Z" />
</svg>
