<?xml version="1.0" encoding="UTF-8" standalone="no"?>
<!DOCTYPE svg PUBLIC "-//W3C//DTD SVG 20010904//EN"
              "http://www.w3.org/TR/2001/REC-SVG-20010904/DTD/svg10.dtd">

<svg xmlns="http://www.w3.org/2000/svg"
     width="7.11111in" height="7.11111in"
     viewBox="0 0 512 512">
  <path id="Selection"
        fill="#6c757d" stroke="#6c757d" stroke-width="1"
        d="M 227.00,0.22
           C 227.00,0.22 279.00,0.22 279.00,0.22
             279.00,0.22 316.00,5.76 316.00,5.76
             316.00,5.76 327.00,9.25 327.00,9.25
             327.00,9.25 334.00,10.78 334.00,10.78
             344.25,13.73 356.35,19.01 366.00,23.61
             422.52,50.53 464.93,94.10 490.97,151.00
             498.98,168.49 504.23,187.18 507.80,206.00
             509.62,215.58 511.98,225.21 512.00,235.00
             512.00,235.00 512.00,277.00 512.00,277.00
             511.98,287.16 509.38,297.05 507.61,307.00
             507.61,307.00 506.48,315.00 506.48,315.00
             506.48,315.00 503.04,326.00 503.04,326.00
             503.04,326.00 500.91,335.00 500.91,335.00
             492.69,360.43 480.02,385.97 464.05,407.42
             446.59,430.87 423.60,454.11 399.00,470.05
             381.28,481.54 362.89,490.81 343.00,497.86
             343.00,497.86 334.00,501.22 334.00,501.22
             334.00,501.22 327.00,502.75 327.00,502.75
             327.00,502.75 315.00,506.48 315.00,506.48
             315.00,506.48 307.00,507.61 307.00,507.61
             297.05,509.38 287.16,511.98 277.00,512.00
             277.00,512.00 233.00,512.00 233.00,512.00
             219.36,511.84 198.28,506.55 185.00,502.78
             185.00,502.78 177.00,500.91 177.00,500.91
             98.47,475.54 36.46,413.52 11.09,335.00
             11.09,335.00 9.25,327.00 9.25,327.00
             9.25,327.00 5.76,316.00 5.76,316.00
             4.19,309.83 0.01,283.21 0.00,277.00
             0.00,277.00 0.00,235.00 0.00,235.00
             0.01,228.35 4.11,202.78 5.75,196.00
             5.75,196.00 9.22,185.00 9.22,185.00
             9.22,185.00 11.09,177.00 11.09,177.00
             29.94,118.67 67.30,71.57 118.72,38.51
             118.72,38.51 140.00,26.18 140.00,26.18
             149.89,21.38 167.61,13.77 178.00,10.78
             178.00,10.78 185.00,9.22 185.00,9.22
             185.00,9.22 197.00,5.51 197.00,5.51
             197.00,5.51 205.00,4.39 205.00,4.39
             205.00,4.39 227.00,0.22 227.00,0.22 Z
           M 232.00,41.10
           C 211.57,44.41 191.05,48.94 172.00,57.00
             113.80,81.63 67.53,132.29 49.80,193.00
             45.60,207.36 41.02,223.95 41.00,239.00
             41.00,239.00 41.00,273.00 41.00,273.00
             41.02,286.67 47.48,312.75 51.89,326.00
             75.34,396.48 139.91,453.34 213.00,466.61
             222.50,468.34 232.30,470.88 242.00,471.00
             242.00,471.00 268.00,471.00 268.00,471.00
             291.09,470.96 328.19,460.14 349.00,450.02
             375.15,437.31 398.11,419.99 417.37,398.17
             435.47,377.65 447.24,357.34 457.20,332.00
             463.23,316.66 470.81,286.35 471.00,270.00
             471.30,243.83 471.81,239.94 466.80,214.00
             466.80,214.00 465.10,204.00 465.10,204.00
             451.44,147.30 411.30,94.83 360.00,67.03
             341.37,56.93 321.71,49.61 301.00,45.34
             291.51,43.38 282.79,41.02 273.00,41.10
             273.00,41.10 254.00,41.10 254.00,41.10
             254.00,41.10 232.00,41.10 232.00,41.10 Z
           M 78.00,296.00
           C 78.00,220.71 128.43,152.59 194.00,118.89
             211.98,109.65 235.72,99.70 256.00,98.00
             253.19,102.98 244.60,108.25 240.00,112.29
             231.81,119.47 220.10,131.04 217.53,142.00
             215.49,150.71 220.07,170.00 228.17,174.76
             231.25,176.57 233.65,176.26 237.00,176.00
             237.00,176.00 237.00,207.00 237.00,207.00
             237.00,207.00 236.00,224.00 236.00,224.00
             236.00,224.00 236.00,313.00 236.00,313.00
             236.00,316.00 235.88,319.12 236.85,322.00
             238.26,326.17 241.07,329.34 245.00,331.28
             255.48,336.46 266.18,331.04 276.00,326.91
             281.05,324.79 292.28,320.02 294.40,314.83
             295.12,313.07 295.00,309.94 295.00,308.00
             295.00,308.00 295.00,205.00 295.00,205.00
             294.98,193.06 291.17,181.09 284.84,171.00
             281.79,166.13 277.44,162.19 275.00,157.00
             282.74,157.00 285.61,156.71 293.00,159.93
             297.07,161.71 299.98,164.92 302.91,164.32
             305.42,163.81 311.00,157.41 313.17,155.41
             318.88,150.15 325.39,145.83 332.00,141.79
             351.11,130.13 372.47,122.67 394.00,117.00
             393.13,123.29 384.58,132.46 380.67,137.91
             369.58,153.40 355.03,171.18 355.00,191.00
             355.00,191.00 355.00,316.00 355.00,316.00
             355.02,325.73 356.07,329.30 366.00,332.28
             369.35,333.28 371.51,333.93 375.00,333.06
             391.94,328.84 406.98,318.56 420.00,307.27
             424.74,303.16 428.29,297.71 434.00,295.00
             432.44,305.07 426.84,312.69 421.38,321.00
             407.56,342.05 385.70,363.61 365.00,377.86
             357.19,383.23 353.48,385.69 345.00,390.12
             342.86,391.23 337.22,394.03 335.00,394.10
             332.32,394.18 326.48,391.10 324.00,389.78
             324.00,389.78 306.00,380.83 306.00,380.83
             303.19,379.43 299.28,376.63 296.04,377.21
             292.84,377.79 287.36,384.15 284.92,386.59
             284.92,386.59 267.25,404.08 267.25,404.08
             264.74,406.59 260.01,411.87 256.96,413.15
             252.98,414.82 248.06,413.33 244.00,412.61
             244.00,412.61 222.00,408.34 222.00,408.34
             222.00,408.34 211.00,405.48 211.00,405.48
             191.41,399.09 170.60,389.37 155.00,375.71
             148.67,370.17 140.19,361.85 137.00,354.00
             147.48,354.09 154.08,356.79 165.00,353.11
             168.79,351.84 172.88,349.99 174.40,345.98
             175.11,344.11 175.00,341.04 175.00,339.00
             175.00,339.00 175.00,225.00 175.00,225.00
             175.00,222.58 175.13,219.25 174.26,217.00
             168.81,202.96 148.84,213.47 141.01,218.95
             125.00,230.18 108.51,250.95 97.51,267.25
             97.51,267.25 86.33,285.00 86.33,285.00
             83.87,289.25 82.32,293.39 78.00,296.00 Z" />
</svg>
