<?xml version="1.0" encoding="UTF-8" standalone="no"?>
<!DOCTYPE svg PUBLIC "-//W3C//DTD SVG 20010904//EN"
              "http://www.w3.org/TR/2001/REC-SVG-20010904/DTD/svg10.dtd">

<svg xmlns="http://www.w3.org/2000/svg"
     width="0.853333in" height="0.853333in"
     viewBox="0 0 256 256">
  <path id="Selection"
        fill="#6c757d" stroke="#6c757d" stroke-width="1"
        d="M 115.00,72.00
           C 116.84,67.20 123.24,57.75 126.34,53.00
             126.34,53.00 136.19,38.00 136.19,38.00
             144.06,25.34 152.43,8.73 170.00,10.19
             177.07,10.77 189.09,16.68 196.00,19.58
             196.00,19.58 230.00,33.72 230.00,33.72
             245.76,40.50 255.97,43.02 256.00,63.00
             256.00,63.00 256.00,194.00 256.00,194.00
             255.97,213.39 245.26,215.72 230.00,222.28
             230.00,222.28 191.00,238.58 191.00,238.58
             181.72,242.54 171.31,248.03 161.00,244.96
             150.91,241.95 148.10,236.15 142.67,228.00
             142.67,228.00 123.19,198.00 123.19,198.00
             120.33,193.39 116.95,189.09 115.00,184.00
             103.20,196.96 95.66,219.79 75.00,218.96
             66.46,218.62 57.62,213.06 50.00,209.25
             50.00,209.25 27.00,197.25 27.00,197.25
             11.70,189.59 0.03,186.75 0.00,167.00
             0.00,167.00 0.00,87.00 0.00,87.00
             0.21,69.84 13.85,65.33 27.00,58.75
             27.00,58.75 46.00,48.75 46.00,48.75
             54.18,44.66 66.10,37.40 75.00,37.04
             95.66,36.21 103.20,59.04 115.00,72.00 Z
           M 192.00,77.00
           C 192.00,77.00 164.58,114.00 164.58,114.00
             162.40,117.01 156.01,124.53 156.01,128.00
             156.01,131.47 162.40,138.99 164.58,142.00
             164.58,142.00 192.00,179.00 192.00,179.00
             192.00,179.00 192.00,77.00 192.00,77.00 Z
           M 53.00,89.00
           C 53.00,89.00 52.00,110.00 52.00,110.00
             52.00,110.00 52.00,148.00 52.00,148.00
             52.00,148.00 53.00,167.00 53.00,167.00
             53.00,167.00 71.05,139.00 71.05,139.00
             71.05,139.00 76.99,128.00 76.99,128.00
             76.99,128.00 71.05,117.00 71.05,117.00
             71.05,117.00 53.00,89.00 53.00,89.00 Z" />
</svg>
